<?xml version="1.0" encoding="UTF-8" standalone="no"?>
<!-- Created with Inkscape (http://www.inkscape.org/) -->

<svg
   xmlns:dc="http://purl.org/dc/elements/1.1/"
   xmlns:cc="http://creativecommons.org/ns#"
   xmlns:rdf="http://www.w3.org/1999/02/22-rdf-syntax-ns#"
   xmlns:svg="http://www.w3.org/2000/svg"
   xmlns="http://www.w3.org/2000/svg"
   xmlns:sodipodi="http://sodipodi.sourceforge.net/DTD/sodipodi-0.dtd"
   xmlns:inkscape="http://www.inkscape.org/namespaces/inkscape"
   width="50.000004"
   height="49.999962"
   viewBox="0 0 13.229168 13.229158"
   version="1.1"
   id="svg3407"
   inkscape:version="0.92.3 (2405546, 2018-03-11)"
   sodipodi:docname="catalog.svg">
  <defs
     id="defs3401" />
  <sodipodi:namedview
     id="base"
     pagecolor="#ffffff"
     bordercolor="#666666"
     borderopacity="1.0"
     inkscape:pageopacity="0.0"
     inkscape:pageshadow="2"
     inkscape:zoom="7.9195959"
     inkscape:cx="21.32609"
     inkscape:cy="31.207644"
     inkscape:document-units="px"
     inkscape:current-layer="layer1"
     showgrid="false"
     inkscape:window-width="1366"
     inkscape:window-height="713"
     inkscape:window-x="0"
     inkscape:window-y="27"
     inkscape:window-maximized="1"
     fit-margin-top="0"
     fit-margin-left="0"
     fit-margin-right="0"
     fit-margin-bottom="0"
     units="px" />
  <metadata
     id="metadata3404">
    <rdf:RDF>
      <cc:Work
         rdf:about="">
        <dc:format>image/svg+xml</dc:format>
        <dc:type
           rdf:resource="http://purl.org/dc/dcmitype/StillImage" />
        <dc:title></dc:title>
      </cc:Work>
    </rdf:RDF>
  </metadata>
  <g
     inkscape:label="Layer 1"
     inkscape:groupmode="layer"
     id="layer1"
     transform="translate(-21.468991,-161.76012)">
    <g
       id="g3361"
       transform="matrix(0.09765618,0,0,0.09765618,8.2989024,136.04876)">
      <path
         style="fill:#f8f9f9;stroke-width:0.26458332"
         d="m 134.86191,331.01785 v -67.73333 h 67.73333 67.73333 v 67.73333 67.73333 h -67.73333 -67.73333 z"
         id="path3371"
         inkscape:connector-curvature="0" />
      <path
         style="fill:#44c3a0;stroke-width:0.26458332"
         d="m 237.17801,392.22501 c -0.0756,-0.12225 -6.4499,-25.10598 -14.1652,-55.5194 -7.7153,-30.41343 -14.12606,-55.53526 -14.24613,-55.8263 -0.12007,-0.29104 -0.27785,24.11677 -0.35061,54.23958 l -0.13229,54.76875 h -17.06562 -17.06563 l -0.0723,-58.34062 c -0.0398,-32.08735 -0.008,-58.60852 0.0712,-58.93594 l 0.1435,-0.59531 h 16.89998 c 15.1665,0 16.91646,0.0429 17.06058,0.41851 0.0883,0.23019 0.1606,1.53987 0.1606,2.91042 0,1.37055 0.0893,2.49016 0.19844,2.48802 0.10914,-0.002 7.41761,-1.83344 16.24105,-4.06956 8.82343,-2.23613 16.15622,-3.99055 16.29508,-3.89872 0.13886,0.0918 0.33293,0.46461 0.43127,0.82841 1.07086,3.96164 28.74963,113.32155 28.69219,113.36394 -0.0428,0.0316 -7.2811,1.88244 -16.08511,4.11301 -8.80401,2.23056 -16.20221,4.1055 -16.44045,4.16653 -0.23824,0.061 -0.49498,0.0109 -0.57053,-0.11132 z m -42.31045,-14.15374 c 7.41176,-3.54204 5.08109,-14.78079 -3.16427,-15.25846 -2.41997,-0.14019 -4.08662,0.45211 -5.87727,2.08866 -1.92347,1.75795 -2.66498,3.44789 -2.66269,6.06846 0.003,3.07192 1.44161,5.54662 4.05088,6.96677 2.5991,1.4146 4.89056,1.4549 7.65335,0.13457 z m -5.93612,-0.77541 c -1.3057,-0.37833 -3.42484,-2.45054 -3.97392,-3.88591 -0.57272,-1.49717 -0.58517,-3.79192 -0.0277,-5.10509 0.56056,-1.32045 1.94022,-2.81807 3.22057,-3.49595 1.53482,-0.8126 4.60661,-0.80937 6.14818,0.006 2.37166,1.25513 4.0668,4.372 3.68302,6.77201 -0.39214,2.45232 -1.89528,4.52465 -3.98532,5.49443 -1.14419,0.53091 -3.6114,0.63518 -5.06484,0.21404 z m 63.56651,-0.25443 c 1.52048,-0.73606 3.04639,-2.21584 3.86214,-3.74542 0.8599,-1.61235 0.88111,-5.64876 0.0379,-7.22087 -2.06263,-3.84588 -6.75142,-5.54643 -10.61489,-3.84986 -1.74834,0.76774 -3.81401,2.96631 -4.39838,4.68135 -1.54617,4.53774 1.12513,9.47652 5.79276,10.70984 1.3628,0.36009 3.97103,0.0782 5.32042,-0.57504 z m -5.67159,-1.01931 c -2.85838,-0.98719 -4.71684,-3.79684 -4.47817,-6.77017 0.15521,-1.93351 0.8844,-3.4559 2.21482,-4.62402 1.36583,-1.19922 2.6055,-1.65991 4.4666,-1.65991 1.87068,0 3.10096,0.46086 4.49294,1.68303 1.95749,1.7187 2.71909,4.56737 1.92876,7.21423 -0.49729,1.66547 -2.63407,3.71517 -4.4192,4.23911 -1.81758,0.53347 -2.45921,0.52092 -4.20575,-0.0823 z m -10.98013,-58.1305 c 5.55498,-1.40804 10.23619,-2.64428 10.40269,-2.74718 0.34422,-0.21274 -8.05403,-33.87766 -8.52407,-34.16926 -0.32238,-0.2 -20.50869,4.88883 -20.88477,5.26491 -0.16814,0.16814 1.1831,5.9773 3.86847,16.6311 4.12834,16.3786 4.45218,17.55586 4.83362,17.57192 0.11226,0.005 4.74909,-1.14344 10.30406,-2.55149 z m -33.83307,-0.68502 c 0.45897,-0.45898 0.45897,-34.62477 0,-35.08375 -0.45605,-0.45605 -21.13395,-0.45605 -21.59,0 -0.45898,0.45898 -0.45898,34.62477 0,35.08375 0.45605,0.45605 21.13395,0.45605 21.59,0 z m -67.15125,13.80931 v -59.00403 l 16.99948,0.0681 16.99948,0.0681 0.0667,58.93594 0.0667,58.93593 h -17.06621 -17.06621 z m 19.99505,47.44811 c 1.7733,-0.60304 4.09391,-2.92365 4.69695,-4.69695 1.47704,-4.34338 -0.62167,-8.90585 -4.82726,-10.49417 -2.84801,-1.07561 -6.2986,-0.31285 -8.48766,1.8762 -3.92759,3.92759 -2.77604,10.62964 2.23361,12.99963 1.90727,0.9023 4.30937,1.02092 6.38436,0.31529 z m -5.9206,-1.56484 c -4.08709,-2.03668 -4.99376,-7.33432 -1.8225,-10.64879 4.21072,-4.40087 11.56775,-1.48997 11.55796,4.57305 -0.006,3.88866 -2.86009,6.74112 -6.75848,6.75526 -1.2013,0.004 -1.9455,-0.16551 -2.97698,-0.67952 z m 13.90714,-77.08537 c 0.0538,-13.88727 -0.002,-17.62234 -0.26458,-17.78918 -0.38439,-0.24403 -20.58443,-0.29991 -21.21308,-0.0587 -0.3758,0.14421 -0.41851,1.94894 -0.41851,17.68299 0,9.63731 0.0807,17.60308 0.17931,17.7017 0.0986,0.0986 5.00996,0.14824 10.91407,0.11024 l 10.73474,-0.0691 z"
         id="path3369"
         inkscape:connector-curvature="0" />
      <path
         style="fill:#26a1d9;stroke-width:0.26458332"
         d="m 134.86185,330.9517 6e-5,-58.93593 h 16.76864 c 13.89608,0 16.82031,0.0623 17.07024,0.3634 0.2242,0.27014 0.28343,15.3377 0.23083,58.71547 -0.0389,32.09364 -0.1376,58.41891 -0.2193,58.5006 -0.0817,0.0817 -7.73148,0.18088 -16.99953,0.22046 l -16.85099,0.0719 z m 20.56183,47.43622 c 2.70113,-1.1665 4.83823,-4.42627 4.83823,-7.37989 0,-3.25824 -1.73498,-6.04086 -4.66628,-7.48393 -1.52693,-0.75171 -2.04538,-0.87327 -3.66372,-0.85906 -5.38558,0.0473 -9.28243,5.00536 -7.96766,10.13743 1.3153,5.1341 6.57182,7.69619 11.45943,5.58545 z m -5.81032,-1.20475 c -1.52839,-0.56133 -2.68605,-1.57952 -3.52834,-3.10324 -0.99798,-1.80536 -1.07956,-4.4822 -0.18806,-6.17075 1.73456,-3.28536 5.84062,-4.67384 9.02198,-3.05084 4.93484,2.51757 4.98234,9.4275 0.0824,11.98726 -1.60576,0.83886 -3.6708,0.96824 -5.38798,0.33757 z m 13.49968,-76.98928 c 0.0402,-9.45885 0.008,-17.4658 -0.0712,-17.79323 l -0.14419,-0.59531 h -10.83357 c -10.44004,0 -10.84351,0.0186 -11.10745,0.51178 -0.29602,0.5531 -0.39736,33.52864 -0.10638,34.61454 l 0.16029,0.59819 11.01474,-0.069 11.01474,-0.069 z m 11.08359,89.64965 c -0.22035,-0.22035 -0.23603,-116.83531 -0.0158,-117.40926 0.14412,-0.37557 1.89203,-0.41851 17.03732,-0.41851 15.50598,0 16.89046,0.0358 17.04589,0.44087 0.20476,0.53358 0.20499,116.99895 2.4e-4,117.33025 -0.1661,0.26874 -33.79964,0.32467 -34.06766,0.0566 z m 20.67093,-11.77227 c 7.41176,-3.54204 5.08109,-14.78079 -3.16427,-15.25846 -2.41997,-0.14019 -4.08662,0.45211 -5.87727,2.08866 -1.92347,1.75795 -2.66498,3.44789 -2.66269,6.06846 0.003,3.07192 1.44161,5.54662 4.05088,6.96677 2.5991,1.4146 4.89056,1.4549 7.65335,0.13457 z m -6.42945,-1.10887 c -1.44326,-0.67209 -2.89787,-2.14623 -3.47076,-3.51733 -0.20008,-0.47885 -0.36378,-1.63478 -0.36378,-2.56872 0,-4.35714 3.86182,-7.48583 8.07589,-6.54277 4.98634,1.1159 6.96909,7.42918 3.48623,11.10052 -1.98752,2.09508 -5.16219,2.72294 -7.72758,1.5283 z m 13.57505,-59.7558 c 0.45897,-0.45898 0.45897,-34.62477 0,-35.08375 -0.45605,-0.45605 -21.13395,-0.45605 -21.59,0 -0.45898,0.45898 -0.45898,34.62477 0,35.08375 0.45605,0.45605 21.13395,0.45605 21.59,0 z m 45.58389,59.02827 c -2.90165,-0.55927 -5.27011,-3.45115 -5.3027,-6.47458 -0.0399,-3.70163 2.9936,-6.73557 6.72107,-6.72205 3.73057,0.0136 6.39652,2.48761 6.69561,6.21371 0.35314,4.39939 -3.64888,7.84355 -8.11398,6.98292 z"
         id="path3367"
         inkscape:connector-curvature="0" />
      <path
         style="fill:#e36252;stroke-width:0.26458332"
         d="m 174.19663,389.84354 c -0.22035,-0.22035 -0.23603,-116.83531 -0.0158,-117.40926 0.14412,-0.37557 1.89203,-0.41851 17.03732,-0.41851 15.50598,0 16.89046,0.0358 17.04589,0.44087 0.20476,0.53358 0.20499,116.99895 2.4e-4,117.33025 -0.1661,0.26874 -33.79964,0.32467 -34.06766,0.0566 z m 20.67093,-11.77227 c 7.41176,-3.54204 5.08109,-14.78079 -3.16427,-15.25846 -2.41997,-0.14019 -4.08662,0.45211 -5.87727,2.08866 -1.92347,1.75795 -2.66498,3.44789 -2.66269,6.06846 0.003,3.07192 1.44161,5.54662 4.05088,6.96677 2.5991,1.4146 4.89056,1.4549 7.65335,0.13457 z m -6.42945,-1.10887 c -1.44326,-0.67209 -2.89787,-2.14623 -3.47076,-3.51733 -0.20008,-0.47885 -0.36378,-1.63478 -0.36378,-2.56872 0,-4.35714 3.86182,-7.48583 8.07589,-6.54277 4.98634,1.1159 6.96909,7.42918 3.48623,11.10052 -1.98752,2.09508 -5.16219,2.72294 -7.72758,1.5283 z m 13.57505,-59.7558 c 0.45897,-0.45898 0.45897,-34.62477 0,-35.08375 -0.45605,-0.45605 -21.13395,-0.45605 -21.59,0 -0.45898,0.45898 -0.45898,34.62477 0,35.08375 0.45605,0.45605 21.13395,0.45605 21.59,0 z m -52.3998,59.97657 c -1.52839,-0.56133 -2.68605,-1.57952 -3.52834,-3.10324 -0.99798,-1.80536 -1.07956,-4.4822 -0.18806,-6.17075 1.73456,-3.28536 5.84062,-4.67384 9.02198,-3.05084 4.93484,2.51757 4.98234,9.4275 0.0824,11.98726 -1.60576,0.83886 -3.6708,0.96824 -5.38798,0.33757 z m 97.98369,-0.9483 c -2.90165,-0.55927 -5.27011,-3.45115 -5.3027,-6.47458 -0.0399,-3.70163 2.9936,-6.73557 6.72107,-6.72205 3.73057,0.0136 6.39652,2.48761 6.69561,6.21371 0.35314,4.39939 -3.64888,7.84355 -8.11398,6.98292 z"
         id="path3365"
         inkscape:connector-curvature="0" />
      <path
         style="fill:#637889;stroke-width:0.26458332"
         d="m 149.61336,377.18317 c -1.52839,-0.56133 -2.68605,-1.57952 -3.52834,-3.10324 -0.99798,-1.80536 -1.07956,-4.4822 -0.18806,-6.17075 1.73456,-3.28536 5.84062,-4.67384 9.02198,-3.05084 4.93484,2.51757 4.98234,9.4275 0.0824,11.98726 -1.60576,0.83886 -3.6708,0.96824 -5.38798,0.33757 z m 38.82475,-0.22077 c -1.44326,-0.67209 -2.89787,-2.14623 -3.47076,-3.51733 -0.20008,-0.47885 -0.36378,-1.63478 -0.36378,-2.56872 0,-4.35714 3.86182,-7.48583 8.07589,-6.54277 4.98634,1.1159 6.96909,7.42918 3.48623,11.10052 -1.98752,2.09508 -5.16219,2.72294 -7.72758,1.5283 z m 59.15894,-0.72753 c -2.90165,-0.55927 -5.27011,-3.45115 -5.3027,-6.47458 -0.0399,-3.70163 2.9936,-6.73557 6.72107,-6.72205 3.73057,0.0136 6.39652,2.48761 6.69561,6.21371 0.35314,4.39939 -3.64888,7.84355 -8.11398,6.98292 z m -39.13863,-96.18238 c -0.0233,-0.30923 -0.10506,-0.96408 -0.1817,-1.45521 -0.12761,-0.81772 -0.11541,-0.83801 0.14481,-0.24076 0.15629,0.35871 0.23805,1.01355 0.1817,1.45521 -0.0606,0.47454 -0.11979,0.57302 -0.14481,0.24076 z"
         id="path3363"
         inkscape:connector-curvature="0" />
    </g>
  </g>
</svg>
