<?xml version="1.0" encoding="UTF-8" standalone="no"?>
<!-- Created with Inkscape (http://www.inkscape.org/) -->

<svg
   xmlns:dc="http://purl.org/dc/elements/1.1/"
   xmlns:cc="http://creativecommons.org/ns#"
   xmlns:rdf="http://www.w3.org/1999/02/22-rdf-syntax-ns#"
   xmlns:svg="http://www.w3.org/2000/svg"
   xmlns="http://www.w3.org/2000/svg"
   xmlns:sodipodi="http://sodipodi.sourceforge.net/DTD/sodipodi-0.dtd"
   xmlns:inkscape="http://www.inkscape.org/namespaces/inkscape"
   width="49.999996"
   height="46.270149"
   viewBox="0 0 13.229166 12.242313"
   version="1.1"
   id="svg1818"
   inkscape:version="0.92.3 (2405546, 2018-03-11)"
   sodipodi:docname="mes.svg">
  <defs
     id="defs1812" />
  <sodipodi:namedview
     id="base"
     pagecolor="#ffffff"
     bordercolor="#666666"
     borderopacity="1.0"
     inkscape:pageopacity="0.0"
     inkscape:pageshadow="2"
     inkscape:zoom="1.4"
     inkscape:cx="18.688281"
     inkscape:cy="110.81982"
     inkscape:document-units="px"
     inkscape:current-layer="layer1"
     showgrid="false"
     fit-margin-top="0"
     fit-margin-left="0"
     fit-margin-right="0"
     fit-margin-bottom="0"
     inkscape:window-width="1366"
     inkscape:window-height="713"
     inkscape:window-x="0"
     inkscape:window-y="27"
     inkscape:window-maximized="1"
     inkscape:snap-intersection-paths="true"
     inkscape:object-paths="true"
     inkscape:snap-nodes="false"
     units="px" />
  <metadata
     id="metadata1815">
    <rdf:RDF>
      <cc:Work
         rdf:about="">
        <dc:format>image/svg+xml</dc:format>
        <dc:type
           rdf:resource="http://purl.org/dc/dcmitype/StillImage" />
        <dc:title></dc:title>
      </cc:Work>
    </rdf:RDF>
  </metadata>
  <g
     inkscape:label="Layer 1"
     inkscape:groupmode="layer"
     id="layer1"
     transform="translate(-7.7977973,-44.971128)"
     style="display:inline">
    <g
       id="g2651"
       transform="matrix(0.11989149,0,0,0.11989149,-10.725232,30.99644)">
      <path
         style="fill:#c2d7e9;stroke-width:1.69326055"
         d="m 159.36386,216.5171 c -3.1222,-1.57141 -4.36671,-3.71369 -4.74208,-8.16296 -0.82185,-9.7414 1.71441,-12.23715 30.8168,-11.66896 l 31.40914,0.61323 c -0.10231,-0.34975 44.79036,18.19833 44.79036,18.19833 0,0 -5.9493,3.19923 -50.46889,3.17587 -34.80934,-0.0183 -48.70786,-0.59656 -51.80533,-2.15551 z"
         id="path2667"
         inkscape:connector-curvature="0"
         sodipodi:nodetypes="csscccc" />
      <path
         style="fill:#87b0d4;stroke-width:1.69326055"
         d="m 185.6094,180.64745 c 0.64842,0.39839 -17.49241,-10.72561 -18.17662,-11.74354 -2.29167,-3.40943 -1.17743,-11.5167 2.6594,-13.26943 7.22747,-3.30164 29.57034,10.48983 29.57034,10.48983 0,0 24.92592,13.58955 25.28349,13.23198 1.01775,1.66109 35.08908,29.00944 35.08908,29.00944 -1.70309,1.54128 -15.82515,6.32203 -16.69439,4.19208 z"
         id="path2663"
         inkscape:connector-curvature="0"
         sodipodi:nodetypes="ccsccccc" />
      <path
         style="fill:#689bca;stroke-width:1.69326055"
         d="m 215.81836,197.17242 c -1.82452,-1.19394 -1.12252,0.41253 8.63311,-0.5091 l 10.1781,-0.22105 c -16.81828,-27.99495 2.64593,3.43924 10.77145,18.13754 z"
         id="path2661"
         inkscape:connector-curvature="0"
         sodipodi:nodetypes="ccccc" />
      <path
         style="fill:#4a88c0;stroke-width:1.69326055"
         d="m 247.10392,216.93238 c -1.56716,-0.91422 -3.4679,-3.57668 -4.80113,-6.12649 -3.998,-7.6462 -19.94094,-35.64297 -32.3468,-57.50027 -6.40592,-11.2863 -11.64713,-21.59381 -11.64713,-22.90558 0,-4.82617 5.19985,-9.91158 10.13463,-9.91158 6.48607,0 7.68642,1.41587 21.31497,25.14191 l 13.70364,24.36848 c 0,0 3.80541,47.95389 3.64182,46.93353 z"
         id="path2659"
         inkscape:connector-curvature="0"
         sodipodi:nodetypes="cssssscc" />
      <path
         style="fill:#2b73b5;stroke-width:1.69326055"
         d="m 245.81501,216.1329 c -2.32604,-2.09541 -5.51495,-9.24582 -8.24099,-14.36794 -2.72603,-5.12211 -6.65542,-12.17031 -8.73197,-15.66266 -4.45957,-7.50014 -8.26891,-9.66482 6.14646,-2.04519 l 8.97672,4.73389 c 0,0 2.54102,26.22897 1.84978,27.3419 z"
         id="path2655"
         inkscape:connector-curvature="0"
         sodipodi:nodetypes="cscccc" />
      <path
         style="fill:#0e61ab;stroke-width:1.69326055"
         d="m 252.09167,105.52802 c 11.99553,-0.0155 13.58489,-0.53021 12.44051,58.70104 -0.99059,51.27116 0.30141,45.97125 -2.43493,50.6596 -2.56841,4.40061 -14.37149,4.09649 -16.12685,1.25254 -4.44232,-7.19724 -6.45041,-109.45393 6.12127,-110.61318"
         id="path2653"
         inkscape:connector-curvature="0"
         sodipodi:nodetypes="csssc" />
    </g>
  </g>
</svg>
