<?xml version="1.0" encoding="UTF-8" standalone="no"?>
<svg
   xmlns:dc="http://purl.org/dc/elements/1.1/"
   xmlns:cc="http://creativecommons.org/ns#"
   xmlns:rdf="http://www.w3.org/1999/02/22-rdf-syntax-ns#"
   xmlns:svg="http://www.w3.org/2000/svg"
   xmlns="http://www.w3.org/2000/svg"
   xmlns:sodipodi="http://sodipodi.sourceforge.net/DTD/sodipodi-0.dtd"
   xmlns:inkscape="http://www.inkscape.org/namespaces/inkscape"
   x="0px"
   y="0px"
   width="48px"
   height="48px"
   viewBox="0 0 48 48"
   version="1.1"
   id="svg14"
   sodipodi:docname="organizacion_white.svg"
   inkscape:version="0.92.3 (2405546, 2018-03-11)">
  <metadata
     id="metadata20">
    <rdf:RDF>
      <cc:Work
         rdf:about="">
        <dc:format>image/svg+xml</dc:format>
        <dc:type
           rdf:resource="http://purl.org/dc/dcmitype/StillImage" />
        <dc:title></dc:title>
      </cc:Work>
    </rdf:RDF>
  </metadata>
  <defs
     id="defs18" />
  <sodipodi:namedview
     pagecolor="#ffffff"
     bordercolor="#666666"
     borderopacity="1"
     objecttolerance="10"
     gridtolerance="10"
     guidetolerance="10"
     inkscape:pageopacity="0"
     inkscape:pageshadow="2"
     inkscape:window-width="1366"
     inkscape:window-height="713"
     id="namedview16"
     showgrid="false"
     inkscape:zoom="4.9166667"
     inkscape:cx="20.440678"
     inkscape:cy="24"
     inkscape:window-x="0"
     inkscape:window-y="27"
     inkscape:window-maximized="1"
     inkscape:current-layer="svg14" />
  <g
     id="g12">
    <path
       fill="#335262"
       d="M40,23H25v-5c0-0.55273-0.44775-1-1-1s-1,0.44727-1,1v5H8c-0.55225,0-1,0.44727-1,1v6  c0,0.55273,0.44775,1,1,1s1-0.44727,1-1v-5h14v5c0,0.55273,0.44775,1,1,1s1-0.44727,1-1v-5h14v5c0,0.55273,0.44775,1,1,1  s1-0.44727,1-1v-6C41,23.44727,40.55225,23,40,23z"
       id="path2" />
    <path
       fill="#E86C60"
       d="M28,35h-8c-0.55225,0-1,0.44727-1,1v8c0,0.55273,0.44775,1,1,1h8c0.55225,0,1-0.44727,1-1v-8  C29,35.44727,28.55225,35,28,35z"
       id="path4" />
    <path
       fill="#E86C60"
       d="M28,3h-8c-0.55225,0-1,0.44727-1,1v8c0,0.55273,0.44775,1,1,1h8c0.55225,0,1-0.44727,1-1V4  C29,3.44727,28.55225,3,28,3z"
       id="path6" />
    <path
       fill="#E86C60"
       d="M44,35h-8c-0.55225,0-1,0.44727-1,1v8c0,0.55273,0.44775,1,1,1h8c0.55225,0,1-0.44727,1-1v-8  C45,35.44727,44.55225,35,44,35z"
       id="path8" />
    <path
       fill="#E86C60"
       d="M12,35H4c-0.55225,0-1,0.44727-1,1v8c0,0.55273,0.44775,1,1,1h8c0.55225,0,1-0.44727,1-1v-8  C13,35.44727,12.55225,35,12,35z"
       id="path10" />
  </g>
  <path
     style="opacity:0.98999999;fill:#ffffff;fill-opacity:1;stroke:none;stroke-width:0.02033898;stroke-miterlimit:4;stroke-dasharray:none;stroke-opacity:1"
     d="m 19.333567,12.483558 c -0.26074,-0.372258 -0.316618,-1.164311 -0.316618,-4.4879474 0,-2.3931049 0.0857,-4.1960481 0.210546,-4.4293207 C 19.426048,3.1952895 19.697885,3.1728814 24,3.1728814 c 4.302115,0 4.573952,0.022408 4.772505,0.3934085 0.124844,0.2332726 0.210546,2.0362158 0.210546,4.4293207 0,3.3236364 -0.05588,4.1156894 -0.316618,4.4879474 -0.310401,0.44316 -0.402024,0.452035 -4.666433,0.452035 -4.26441,0 -4.356032,-0.0089 -4.666433,-0.452035 z"
     id="path827"
     inkscape:connector-curvature="0" />
  <path
     style="opacity:0.98999999;fill:#ffffff;fill-opacity:1;stroke:none;stroke-width:0.02033898;stroke-miterlimit:4;stroke-dasharray:none;stroke-opacity:1"
     d="M 7.4237288,30.635198 C 6.9516525,30.337375 6.8558925,24.296436 7.3122081,23.600011 l 0.324288,-0.494926 h 7.7183849 7.718386 l 0.05659,-2.772164 c 0.05171,-2.533426 0.09243,-2.795932 0.472799,-3.048157 0.354745,-0.235234 0.482404,-0.229631 0.864407,0.03793 0.424205,0.297124 0.448194,0.460277 0.448194,3.048157 v 2.73423 h 7.717282 7.717279 l 0.316619,0.452035 c 0.250403,0.357501 0.316035,1.048691 0.313841,3.305085 -0.0032,3.325731 -0.07967,3.730199 -0.736034,3.894935 -0.95678,0.240137 -1.091699,-0.143061 -1.091699,-3.100688 v -2.720859 h -7.118644 -7.118644 v 2.555744 c 0,2.775231 -0.155345,3.342561 -0.915254,3.342561 -0.759909,0 -0.915254,-0.56733 -0.915254,-3.342561 v -2.55574 H 15.966102 8.8474576 v 2.705085 c 0,2.749209 -0.112753,3.196929 -0.8033898,3.190106 -0.1733898,-0.0017 -0.4525424,-0.08973 -0.620339,-0.195586 z"
     id="path829"
     inkscape:connector-curvature="0" />
  <path
     style="opacity:0.98999999;fill:#ffffff;fill-opacity:1;stroke:none;stroke-width:0.02033898;stroke-miterlimit:4;stroke-dasharray:none;stroke-opacity:1"
     d="m 19.333567,44.415761 c -0.467161,-0.666965 -0.467161,-8.191676 0,-8.858641 C 19.643968,35.11396 19.73559,35.105085 24,35.105085 c 4.264409,0 4.356032,0.0089 4.666433,0.452035 0.260359,0.371714 0.316618,1.158746 0.316618,4.429321 0,3.270574 -0.05626,4.057606 -0.316618,4.42932 -0.310401,0.44316 -0.402024,0.452036 -4.666433,0.452036 -4.26441,0 -4.356032,-0.0089 -4.666433,-0.452036 z"
     id="path831"
     inkscape:connector-curvature="0" />
  <path
     style="opacity:0.98999999;fill:#ffffff;fill-opacity:1;stroke:none;stroke-width:0.02033898;stroke-miterlimit:4;stroke-dasharray:none;stroke-opacity:1"
     d="m 35.295292,44.474388 c -0.125489,-0.234477 -0.210546,-2.077356 -0.210546,-4.561743 0,-3.518209 0.04985,-4.218184 0.319612,-4.487948 0.270483,-0.270482 0.983315,-0.319612 4.637289,-0.319612 3.087005,0 4.387242,0.06957 4.561743,0.244068 0.345763,0.345763 0.345763,8.928813 0,9.274576 -0.174879,0.174878 -1.498975,0.244068 -4.67081,0.244068 -4.16843,0 -4.439028,-0.02296 -4.637288,-0.393409 z"
     id="path833"
     inkscape:connector-curvature="0" />
  <path
     style="opacity:0.98999999;fill:#ffffff;fill-opacity:1;stroke:none;stroke-width:0.02033898;stroke-miterlimit:4;stroke-dasharray:none;stroke-opacity:1"
     d="m 3.3966102,44.623729 c -0.345763,-0.345763 -0.345763,-8.928813 0,-9.274576 0.174501,-0.174501 1.4747377,-0.244068 4.5617432,-0.244068 3.6539736,0 4.3668056,0.04913 4.6372886,0.319612 0.269763,0.269764 0.319612,0.969739 0.319612,4.487948 0,2.484387 -0.08506,4.327266 -0.210546,4.561743 -0.19826,0.370452 -0.468858,0.393409 -4.6372878,0.393409 -3.1718353,0 -4.4959313,-0.06919 -4.67081,-0.244068 z"
     id="path835"
     inkscape:connector-curvature="0" />
</svg>
