<?xml version="1.0" encoding="UTF-8" standalone="no"?>
<!-- Created with Inkscape (http://www.inkscape.org/) -->

<svg
   xmlns:dc="http://purl.org/dc/elements/1.1/"
   xmlns:cc="http://creativecommons.org/ns#"
   xmlns:rdf="http://www.w3.org/1999/02/22-rdf-syntax-ns#"
   xmlns:svg="http://www.w3.org/2000/svg"
   xmlns="http://www.w3.org/2000/svg"
   xmlns:sodipodi="http://sodipodi.sourceforge.net/DTD/sodipodi-0.dtd"
   xmlns:inkscape="http://www.inkscape.org/namespaces/inkscape"
   width="50.000004"
   height="46.861702"
   viewBox="0 0 13.229168 12.398826"
   version="1.1"
   id="svg2762"
   inkscape:version="0.92.3 (2405546, 2018-03-11)"
   sodipodi:docname="sceiba.svg">
  <defs
     id="defs2756" />
  <sodipodi:namedview
     id="base"
     pagecolor="#ffffff"
     bordercolor="#666666"
     borderopacity="1.0"
     inkscape:pageopacity="0.0"
     inkscape:pageshadow="2"
     inkscape:zoom="0.98994949"
     inkscape:cx="435.96346"
     inkscape:cy="176.13445"
     inkscape:document-units="px"
     inkscape:current-layer="layer1"
     showgrid="false"
     fit-margin-top="0"
     fit-margin-left="0"
     fit-margin-right="0"
     fit-margin-bottom="0"
     inkscape:window-width="1366"
     inkscape:window-height="713"
     inkscape:window-x="0"
     inkscape:window-y="27"
     inkscape:window-maximized="1"
     units="px" />
  <metadata
     id="metadata2759">
    <rdf:RDF>
      <cc:Work
         rdf:about="">
        <dc:format>image/svg+xml</dc:format>
        <dc:type
           rdf:resource="http://purl.org/dc/dcmitype/StillImage" />
        <dc:title></dc:title>
      </cc:Work>
    </rdf:RDF>
  </metadata>
  <g
     inkscape:label="Layer 1"
     inkscape:groupmode="layer"
     id="layer1"
     transform="translate(-28.805015,-155.51659)">
    <g
       id="g2718"
       transform="matrix(0.05289877,0,0,0.05289877,17.288484,155.22755)">
      <path
         style="fill:#018d79;stroke-width:0.35277778"
         d="m 344.54959,134.98476 c -0.097,-0.0966 -1.44639,-0.28163 -2.99861,-0.41127 -3.14209,-0.26243 -3.6263,-0.33041 -6.81919,-0.95726 -2.12691,-0.41757 -2.22446,-0.48132 -2.05188,-1.34103 0.0997,-0.49645 0.46082,-2.887 0.80256,-5.31235 0.34175,-2.42535 0.65181,-4.4579 0.68903,-4.51677 0.0372,-0.0589 1.4747,0.17422 3.19441,0.51801 4.7927,0.95811 14.66853,0.87057 19.35452,-0.17155 5.6897,-1.26533 8.0108,-2.03958 13.22916,-4.41278 6.8295,-3.10591 15.9663,-10.83866 19.89821,-16.84044 2.27695,-3.4756 1.98455,-3.252528 4.43151,-3.380813 2.62387,-0.137558 4.05637,-0.942255 5.41934,-3.044271 1.33896,-2.064988 1.5454,-4.438787 0.55796,-6.415948 -0.44002,-0.881052 -1.12879,-1.955451 -1.53061,-2.387554 -0.40181,-0.432103 -0.67126,-0.947459 -0.59877,-1.145237 0.27259,-0.743726 0.80144,-2.861384 0.92675,-3.710978 0.0715,-0.48507 0.29361,-1.528202 0.49348,-2.318071 0.73591,-2.908187 1.01494,-9.311665 0.62149,-14.262484 -0.72414,-9.111792 -5.20044,-20.741055 -10.60955,-27.563244 -0.4049,-0.510688 -1.13307,-1.431946 -1.61814,-2.04724 -1.00259,-1.271753 -4.91274,-5.314516 -5.14018,-5.314516 -0.0824,0 -0.74553,-0.567702 -1.47358,-1.261559 -0.72806,-0.693858 -2.43499,-2.002283 -3.79318,-2.907611 -1.3582,-0.905329 -2.54882,-1.750841 -2.64584,-1.878918 -0.29953,-0.395438 -9.23658,-4.593639 -10.11979,-4.753794 -0.45803,-0.08306 -1.59545,-0.45163 -2.52761,-0.819052 -0.93216,-0.367422 -2.55564,-0.834258 -3.60774,-1.037414 -2.92473,-0.564753 -3.48067,-0.693369 -3.77,-0.872183 -0.22852,-0.141234 -7.36011,-0.703367 -8.90263,-0.701733 -4.69798,0.005 -13.7334,1.585846 -16.75695,2.931855 -0.38806,0.172753 -1.65751,0.655307 -2.82101,1.072344 -2.36608,0.848085 -6.7336,3.107736 -9.76793,5.053709 -3.80794,2.442091 -7.73863,6.005263 -11.57414,10.491955 -1.06595,1.246918 -2.03681,2.346498 -2.15747,2.443512 -0.12067,0.09701 -0.56145,0.851076 -0.97951,1.675695 -0.41806,0.824618 -0.92538,1.499305 -1.12738,1.499305 -0.202,0 -2.08828,-0.84249 -4.19173,-1.872202 l -3.82445,-1.872202 0.58292,-1.011097 c 0.32061,-0.556101 0.86073,-1.301111 1.20028,-1.655575 0.33955,-0.354464 0.61736,-0.88126 0.61736,-1.170657 0,-0.289397 0.3175,-0.724459 0.70556,-0.966804 0.38805,-0.242344 0.70555,-0.612892 0.70555,-0.823439 0,-0.210547 0.39688,-0.755658 0.88195,-1.211357 0.48507,-0.455699 0.88194,-0.963799 0.88194,-1.129111 0,-0.165312 0.67469,-0.984936 1.49931,-1.821387 0.82462,-0.83645 2.0726,-2.14196 2.77329,-2.901133 1.27276,-1.378976 2.43626,-2.422395 5.25571,-4.713265 0.82331,-0.668956 1.70366,-1.423018 1.95633,-1.675694 0.25268,-0.252675 0.55192,-0.45941 0.66499,-0.45941 0.11307,0 1.11659,-0.611675 2.23006,-1.359277 1.11346,-0.747602 2.73886,-1.73979 3.61198,-2.204861 0.87313,-0.465071 1.66688,-0.932259 1.76389,-1.038195 0.26113,-0.285145 7.38633,-3.3747851 8.81944,-3.8242984 0.6791,-0.2130072 2.02848,-0.6385662 2.99862,-0.9456864 0.97013,-0.3071199 2.39888,-0.6951282 3.175,-0.8622404 0.77611,-0.1671123 2.12548,-0.4842108 2.99861,-0.7046634 2.17279,-0.5486005 10.39744,-1.2936999 13.11954,-1.1885432 5.20387,0.2010297 9.08641,0.5532039 11.39851,1.0339264 1.3582,0.2823905 2.78695,0.5667025 3.175,0.6318048 0.72618,0.1218262 1.75604,0.4223678 5.11528,1.4927813 4.27793,1.3631488 15.07831,6.8028903 17.27289,8.6997003 0.28378,0.245268 1.1569,0.902338 1.94028,1.460156 1.77947,1.267098 2.08013,1.540391 6.18683,5.623686 3.60039,3.57987 3.97188,3.995297 5.2632,5.88571 0.46389,0.679097 1.01847,1.393472 1.2324,1.5875 1.32999,1.206235 7.26274,11.47585 7.26274,12.571832 0,0.205874 0.21704,0.874557 0.48231,1.485963 1.41834,3.269009 2.34182,5.769459 2.34092,6.338313 -7.1e-4,0.352305 0.15091,0.924422 0.33659,1.271376 0.18569,0.346949 0.39352,1.175776 0.46185,1.841835 0.0683,0.666058 0.24053,1.399194 0.38267,1.629184 0.14215,0.229993 0.41472,1.811669 0.60571,3.514834 0.191,1.703165 0.43798,3.389567 0.54886,3.747558 0.21419,0.69159 0.19832,9.911655 -0.0202,11.696326 -0.0712,0.582084 -0.23934,2.248959 -0.37355,3.704167 -0.1342,1.455208 -0.46522,3.280833 -0.73559,4.056944 -0.27038,0.776111 -0.4939,1.770454 -0.49673,2.209649 -0.003,0.439194 -0.14471,1.074194 -0.31531,1.411111 -0.1706,0.336917 -0.58095,1.485699 -0.9119,2.552851 -0.79501,2.563559 -2.22947,6.009654 -3.44565,8.277701 -0.20437,0.381138 -1.09032,2.127384 -1.96876,3.880554 -0.87845,1.75317 -1.80835,3.31453 -2.06646,3.46969 -0.2581,0.15516 -0.46927,0.45139 -0.46927,0.65829 0,0.33865 -2.09302,3.41114 -2.99138,4.39126 -0.19801,0.21603 -0.91564,1.07169 -1.59473,1.90148 -7.73765,9.45465 -20.76671,17.44084 -33.33751,20.43431 -0.97013,0.23102 -2.31951,0.55865 -2.99861,0.72807 -0.67909,0.16942 -1.94909,0.40902 -2.82222,0.53244 -0.87312,0.12341 -2.06375,0.29148 -2.64583,0.37349 -1.82587,0.25722 -11.28019,0.6005 -11.46528,0.41629 z m -3.52777,-14.1197 c -1.06716,-0.15233 -3.00048,-0.45346 -4.29629,-0.66919 l -2.35601,-0.39222 -0.22267,-2.6822 c -0.32826,-3.9542 -1.18625,-9.82789 -1.74449,-11.94263 -0.2689,-1.01864 -0.38421,-1.84973 -0.25625,-1.84687 0.12796,0.003 1.26453,0.25259 2.52571,0.55494 2.19575,0.5264 2.93759,0.63343 6.8565,0.98925 3.33652,0.30294 10.75187,-0.83503 14.34621,-2.2016 0.46525,-0.17688 0.96111,-0.34804 1.10193,-0.38034 0.65111,-0.14937 6.51588,-3.334866 7.98128,-4.335097 0.90226,-0.615847 3.14859,-2.628716 4.99185,-4.473042 l 3.35139,-3.353315 2.13015,0.08382 c 2.38823,0.09398 4.06782,-0.465103 5.56464,-1.852313 0.54154,-0.501883 1.17488,-0.912576 1.40742,-0.912654 0.70757,-2.25e-4 4.83128,2.235765 4.85037,2.630008 0.17112,3.534936 0.22014,3.724243 1.31847,5.090968 0.62322,0.775504 1.13312,1.633555 1.13312,1.906778 0,1.067202 -3.44173,5.501867 -7.02901,9.056857 -2.99995,2.97296 -5.31706,4.83789 -8.14043,6.55184 -1.26118,0.76561 -2.37255,1.47283 -2.46972,1.5716 -0.0972,0.0988 -0.73216,0.47234 -1.41111,0.83014 -0.67895,0.3578 -1.63133,0.85952 -2.1164,1.11494 -1.84733,0.97271 -4.96133,2.23715 -6.61458,2.68584 -3.12511,0.84816 -4.04189,1.047 -7.17321,1.55578 -3.81973,0.62064 -10.81879,0.8341 -13.72887,0.41871 z m -2.51374,-18.40576 c -0.089,-0.089 -0.86956,-0.23515 -1.7345,-0.32468 -0.86493,-0.0895 -2.42083,-0.37387 -3.45756,-0.63186 l -1.88497,-0.46907 -1.13927,-3.351394 c -2.5696,-7.558937 -6.73359,-14.998248 -9.37932,-16.756944 -0.58378,-0.388055 -1.15947,-1.023055 -1.2793,-1.411111 -0.37072,-1.200453 -3.51008,-5.219298 -5.4841,-7.020468 -1.03325,-0.942774 -3.11876,-2.67933 -4.63448,-3.859008 l -2.75584,-2.144871 0.19974,-3.440564 c 0.10985,-1.892311 0.34126,-3.803707 0.51424,-4.247547 0.17298,-0.443844 0.5152,-1.481674 0.76049,-2.306292 0.24529,-0.824618 0.56616,-1.499305 0.71304,-1.499305 0.45464,0 7.25345,3.060665 10.31742,4.644654 1.75148,0.905472 3.78529,1.905886 9.96265,4.90057 l 6.72534,3.260334 -0.0767,1.622915 c -0.0746,1.57837 0.46484,4.619057 0.88255,4.974304 0.11407,0.09701 0.51404,0.732014 0.88883,1.411111 0.82748,1.499369 3.29401,3.740281 5.28125,4.798166 1.28994,0.686693 3.45122,1.201678 5.67032,1.351118 2.68827,0.181031 6.70345,-1.519403 9.04651,-3.831202 l 1.54549,-1.524868 4.27664,2.065334 4.27664,2.065331 0.0322,1.603607 c 0.0395,1.96862 1.02518,4.283361 2.44046,5.731168 l 1.06388,1.088327 -1.36059,1.528593 c -0.74831,0.840726 -1.36508,1.647655 -1.37059,1.793176 -0.005,0.145521 -0.20339,0.264583 -0.43975,0.264583 -0.23636,0 -0.7523,0.373458 -1.14653,0.829903 -1.10981,1.284951 -5.91672,4.381888 -9.16143,5.902406 -3.19032,1.495034 -5.72869,2.233914 -9.54702,2.778984 -2.49894,0.35672 -9.44769,0.5026 -9.74569,0.2046 z m 47.04763,-16.090333 c -2.08407,-0.993531 -2.19464,-1.107556 -1.95263,-2.01367 0.37928,-1.420025 0.23357,-4.798148 -0.21338,-4.947133 -0.21303,-0.07101 -0.38733,-0.337216 -0.38733,-0.591569 0,-0.254353 -0.47625,-0.972288 -1.05833,-1.595409 -0.58208,-0.623122 -1.05833,-1.257928 -1.05833,-1.410678 0,-0.152749 -0.22325,-0.363389 -0.49609,-0.468093 -0.4175,-0.160207 -0.424,-0.403737 -0.041,-1.53705 0.25028,-0.740674 0.56046,-2.696054 0.68929,-4.34529 0.26122,-3.344009 -0.28697,-10.77758 -0.84433,-11.449153 -0.19802,-0.238601 -0.28057,-0.513288 -0.18344,-0.610414 0.27038,-0.27038 -1.90178,-6.153941 -3.09106,-8.372532 -1.26132,-2.352975 -2.81002,-4.745969 -3.17707,-4.909104 -0.14553,-0.06468 -0.26459,-0.267345 -0.26459,-0.450373 0,-0.313112 -1.13448,-1.659386 -3.19455,-3.790929 -1.32697,-1.373015 -4.81237,-4.284162 -5.12925,-4.284162 -0.15058,0 -0.60151,-0.306839 -1.00207,-0.68187 -0.40056,-0.375027 -2.38528,-1.500392 -4.41049,-2.500813 -3.26427,-1.612496 -4.96773,-2.199419 -10.42892,-3.593255 -0.77611,-0.198084 -3.63361,-0.368848 -6.35,-0.379475 -8.35097,-0.03267 -14.50297,1.84444 -21.67814,6.614485 -3.21996,2.140627 -9.54269,8.481134 -9.54269,9.569521 0,0.225509 -0.22781,0.599083 -0.50625,0.830163 -0.40456,0.33576 -1.18977,0.09643 -3.9092,-1.191524 -1.87163,-0.886421 -3.54882,-1.611676 -3.72709,-1.611676 -1.95331,0 5.79969,-9.323177 10.96476,-13.185407 1.06715,-0.797973 2.01965,-1.531587 2.11667,-1.630253 0.32474,-0.330276 4.21999,-2.823229 4.4113,-2.823229 0.10386,0 0.78099,-0.369058 1.50474,-0.820129 0.72374,-0.451072 2.75588,-1.399176 4.51585,-2.106898 10.6143,-4.268243 23.90473,-4.712249 35.34898,-1.180938 2.89035,0.891864 11.01635,4.705889 11.01635,5.17064 0,0.132704 0.635,0.527626 1.41111,0.877603 0.77611,0.349977 1.41111,0.766886 1.41111,0.926463 0,0.159577 0.43657,0.522854 0.97014,0.807281 0.53358,0.284427 1.54579,1.042566 2.24937,1.684754 0.70357,0.642187 1.8942,1.73137 2.64583,2.420406 0.75164,0.689037 1.96932,1.994788 2.70597,2.901666 0.73666,0.906883 1.53041,1.855534 1.76389,2.108116 0.47118,0.509714 1.55344,2.015218 3.058,4.253893 1.49231,2.220461 4.95125,9.019113 4.95125,9.731837 0,0.343408 0.11043,0.734808 0.2454,0.869777 0.13496,0.134966 0.27797,0.439236 0.31778,0.676155 0.0398,0.236918 0.41922,1.700763 0.84313,3.252985 0.4239,1.552222 0.82116,3.298472 0.8828,3.880555 0.0616,0.582084 0.30347,2.465296 0.5374,4.184918 0.45361,3.334484 0.28996,9.631948 -0.33588,12.924804 -0.20282,1.067153 -0.42483,2.416528 -0.49336,2.998611 -0.0685,0.582084 -0.33295,1.733021 -0.58761,2.557639 -0.38508,1.24695 -0.6169,1.503313 -1.37731,1.523115 -2.17088,0.05653 -3.33381,0.388217 -4.5532,1.298649 -0.71499,0.533827 -1.3529,1.08966 -1.41758,1.235181 -0.1986,0.446856 -0.85267,0.276962 -3.1499,-0.818191 z m -18.07556,-9.481714 c -0.6791,-0.368776 -2.47173,-1.277941 -3.98363,-2.020369 -2.55419,-1.254245 -2.73154,-1.412339 -2.5036,-2.23181 0.13492,-0.485069 0.29367,-2.054105 0.35278,-3.486746 0.1233,-2.988352 -0.58795,-5.071438 -2.68499,-7.863755 -1.3103,-1.744712 -4.46075,-4.058853 -5.97195,-4.386643 -0.49897,-0.108232 -1.14535,-0.290612 -1.43639,-0.405289 -0.29104,-0.114677 -1.48166,-0.23585 -2.64583,-0.269272 -3.0103,-0.08643 -6.66898,1.261749 -8.31235,3.06299 -0.62826,0.688618 0.28622,1.026869 -8.09182,-2.993013 -12.68072,-6.084358 -19.40278,-9.448994 -19.40278,-9.711792 0,-0.832453 4.75082,-6.028669 7.53257,-8.238758 4.31858,-3.431106 11.00512,-6.546969 15.39799,-7.175324 1.06715,-0.152646 2.25778,-0.327951 2.64583,-0.389569 2.87985,-0.457278 6.41738,-0.442448 9.525,0.03993 4.82279,0.748613 4.93049,0.771299 5.7538,1.21192 0.39941,0.21376 1.05579,0.388655 1.45861,0.388655 0.84865,0 5.96783,2.460466 7.36228,3.538586 0.52115,0.402918 1.55319,1.191193 2.29345,1.751722 3.65656,2.768787 8.31126,8.190643 9.82778,11.447505 0.36628,0.786634 0.80146,1.668367 0.96706,1.959408 0.60448,1.062373 2.16081,5.147631 2.35191,6.173611 0.0723,0.388056 0.30149,1.499306 0.50934,2.469445 0.5355,2.499293 0.65934,10.220413 0.20088,12.523611 l -0.38622,1.940277 -1.76389,-0.0468 c -2.2964,-0.06092 -4.64021,0.794318 -6.13953,2.240273 -0.66035,0.636852 -1.29535,1.154265 -1.41111,1.149809 -0.11576,-0.0044 -0.76609,-0.309831 -1.44519,-0.678607 z m -65.0233,-13.228496 c -0.93483,-0.646984 -2.71452,-1.630422 -3.95485,-2.185423 -2.27997,-1.020195 -2.9036,-1.654369 -2.33721,-2.376724 0.17089,-0.217942 0.41362,-1.070903 0.53941,-1.895471 0.12578,-0.824565 0.44754,-2.17394 0.71502,-2.998611 0.26747,-0.824668 0.58169,-1.896273 0.69828,-2.381342 0.48298,-2.00956 0.59466,-2.008847 4.77921,0.03048 3.88268,1.892194 3.91677,1.91958 3.69512,2.968149 -0.12304,0.582083 -0.37379,1.244995 -0.55723,1.473133 -0.18343,0.228141 -0.29484,0.625016 -0.24757,0.881944 0.0473,0.256932 -0.11221,1.375745 -0.35438,2.486261 -0.45402,2.082003 -0.68035,3.521276 -0.72264,4.595467 -0.0328,0.834372 -0.27756,0.769444 -2.25316,-0.597845 z m -12.05865,-5.35432 c -1.35819,-0.451337 -3.14615,-0.99012 -3.97323,-1.197292 -1.32448,-0.331763 -1.4612,-0.456287 -1.14653,-1.04424 0.1965,-0.367157 0.35726,-0.96224 0.35726,-1.322409 0,-1.312305 2.89782,-9.622088 3.35545,-9.622088 0.18171,0 7.31936,3.501655 7.49436,3.676657 0.16037,0.160377 -0.8597,3.533475 -1.54179,5.098271 -0.28535,0.65461 -0.43824,1.270776 -0.33976,1.369257 0.0985,0.09848 -0.0535,0.511023 -0.33766,0.916764 -0.28419,0.40574 -0.51671,1.258009 -0.51671,1.893937 0,1.342358 -0.006,1.342785 -3.35139,0.231143 z"
         id="path2726"
         inkscape:connector-curvature="0"
         sodipodi:nodetypes="ccsccccsssssccccccccsccccsscccccccsssccsscsssscccscccccccsscscssccscccccccccccsccccsccccccccccccccssccccccscccscscsccccccccccccccccsscsccccccsccccccccsscccccccsssccsccccscscsssssccsscscsssssccccccsccccscccccccccccsccsccsscccscsccccccsccccccccccccccccsccccscssccccsc" />
      <path
         style="fill:#0f6684;stroke-width:0.35277778"
         d="m 422.16071,153.57287 c -0.48507,-0.0846 -2.07257,-0.32787 -3.52778,-0.5405 -7.73254,-1.1298 -15.94222,-5.17859 -21.90357,-10.80223 -2.2937,-2.16376 -6.21819,-6.74048 -5.92065,-6.90464 0.16851,-0.093 1.16097,-0.69211 3.03316,-1.83108 l 1.49087,-0.90699 2.56607,2.70673 c 3.35875,3.54286 6.29601,5.73699 10.31416,7.70464 6.127,3.00035 9.89965,3.87991 16.41718,3.82755 3.87112,-0.0311 5.40336,-0.20531 8.1865,-0.93077 3.94319,-1.02785 8.37477,-3.0097 11.61098,-5.19256 2.86043,-1.9294 6.9746,-5.8877 8.65405,-8.32619 0.95196,-1.3822 1.5221,-1.8862 2.13372,-1.8862 1.21784,0 2.98462,-0.83674 3.9277,-1.86014 1.41728,-1.53799 1.47559,-4.62072 0.11703,-6.18716 -0.64994,-0.74939 -0.65067,-0.83766 -0.0285,-3.44913 2.25196,-9.45214 0.39558,-19.499967 -5.14489,-27.847133 -5.57831,-8.404183 -14.97133,-14.280628 -25.21226,-15.773259 l -2.83322,-0.412947 v -2.926782 -2.926782 h 1.89407 c 1.04174,0 3.25169,0.236749 4.911,0.526108 17.22419,3.003649 30.27771,15.692539 34.35756,33.397835 0.43361,1.88175 0.59456,4.17794 0.58946,8.40939 -0.008,6.22903 -0.60172,9.77773 -2.46806,14.73951 -5.18359,13.78092 -17.23234,23.93081 -31.6993,26.70355 -2.86686,0.54946 -9.85788,0.9697 -11.46528,0.68918 z m -1.41111,-9.32692 c -5.17746,-0.5031 -10.2835,-2.30575 -14.7237,-5.19808 -2.70029,-1.75896 -8.55964,-7.20402 -8.55964,-7.95443 0,-0.42414 2.23172,-2.49541 4.06079,-3.76885 l 1.41496,-0.98513 2.58301,2.08445 c 4.24164,3.42294 8.56526,5.29414 13.63708,5.90196 7.30792,0.87579 14.58599,-1.56843 20.15409,-6.76842 2.51076,-2.34478 2.75934,-2.48824 4.35125,-2.51132 1.24029,-0.018 2.04229,-0.2763 3.02199,-0.97337 l 1.33364,-0.9489 1.35632,0.69195 c 1.13183,0.57741 1.35632,0.87256 1.35632,1.78326 0,0.60023 0.34255,1.70081 0.76122,2.44573 l 0.76122,1.35441 -1.46586,1.90002 c -5.73843,7.43808 -13.63936,11.87755 -23.06789,12.96166 -3.15893,0.36321 -3.08153,0.36338 -6.9748,-0.0149 z m -4.05695,-12.52037 c -3.16055,-0.70603 -5.01827,-1.45489 -7.20374,-2.90389 -2.72219,-1.80485 -5.09063,-4.03391 -4.60502,-4.33403 0.21517,-0.13298 1.21392,-1.36172 2.21944,-2.73054 1.00551,-1.36881 3.01884,-4.05375 4.47404,-5.96653 1.45521,-1.91278 2.96334,-4.15173 3.35139,-4.97545 0.9474,-2.01101 1.69746,-1.83934 1.98277,0.4538 0.60575,4.86876 4.00391,8.02534 8.6109,7.99876 2.53201,-0.0146 4.12558,-0.5957 5.89563,-2.14982 l 1.26853,-1.11379 2.68133,1.32676 c 1.57663,0.78013 2.61459,1.50067 2.51934,1.7489 -0.27091,0.70598 0.48503,2.88604 1.34905,3.89052 l 0.81498,0.94747 -1.09599,1.21063 c -1.5383,1.69923 -4.94698,4.06785 -7.44598,5.17408 -4.25691,1.88441 -10.19754,2.455 -14.81667,1.42313 z m 33.23199,-9.91247 c -0.74317,-0.40294 -0.93249,-0.70858 -0.76526,-1.23548 0.39403,-1.24146 -0.22401,-3.50952 -1.2859,-4.71895 -0.99996,-1.13888 -1.01618,-1.21835 -0.62294,-3.05194 0.23826,-1.111 0.32352,-3.2588 0.20802,-5.24033 -0.66134,-11.345538 -8.30408,-20.513481 -19.56432,-23.468623 -1.60024,-0.419967 -2.84714,-0.82932 -2.77089,-0.909672 0.20844,-0.219665 0.5367,-2.787552 0.55181,-4.316621 l 0.0133,-1.348299 2.02847,0.234555 c 11.97841,1.385072 21.83152,8.469993 26.91517,19.353459 3.08696,6.608811 3.85548,14.799531 2.05829,21.936811 -0.34046,1.3521 -0.49244,1.50379 -1.70012,1.6969 -0.72943,0.11664 -1.73235,0.53152 -2.2287,0.92195 -1.06658,0.83897 -1.51651,0.86216 -2.83696,0.14624 z m -13.29672,-7.01942 -2.28342,-1.15266 -0.015,-2.77589 c -0.0166,-3.06904 -0.5185,-4.40176 -2.41867,-6.42279 -2.4469,-2.60253 -5.83491,-3.41845 -9.10059,-2.19168 -1.09798,0.41246 -2.18898,0.98207 -2.42444,1.26578 -0.48961,0.58995 -0.68756,0.6213 -1.3341,0.2113 -0.36137,-0.22917 -0.15394,-0.94538 0.94352,-3.25779 1.249,-2.63168 3.92621,-10.609968 3.93138,-11.715792 10e-4,-0.231267 0.17156,-1.031261 0.37885,-1.77777 0.36782,-1.324632 0.40808,-1.351838 1.67373,-1.130805 8.4645,1.478252 15.42905,7.500355 18.18086,15.720647 0.99781,2.98068 1.46135,7.71715 1.01817,10.40356 -0.26126,1.58358 -0.37708,1.75417 -1.13304,1.66884 -1.1714,-0.13222 -3.02437,0.53274 -4.16946,1.49628 l -0.96434,0.81144 -2.28342,-1.15267 z"
         id="path2724"
         inkscape:connector-curvature="0"
         sodipodi:nodetypes="ccscscscscccscscsscccssccssccssccsccccccscccccccsccccccccccccccccccccscccssccccccccscccccccscccccc" />
      <path
         style="fill:#007e3e;stroke-width:0.35277778"
         d="m 261.11765,170.55023 c -14.69374,-2.44354 -27.93563,-11.15262 -35.59816,-23.41262 -3.04397,-4.87033 -5.69253,-11.50166 -6.97452,-17.46246 -1.03595,-4.81678 -1.12641,-15.02771 -0.17513,-19.7677 4.36139,-21.731559 21.0086,-38.102049 42.39503,-41.690324 4.64146,-0.778757 12.63742,-0.787178 17.28611,-0.0182 9.90646,1.638692 19.77017,6.592454 27.10601,13.613208 l 3.13824,3.00344 -2.54106,1.955165 -2.54107,1.955169 -2.53836,-2.489165 c -13.26358,-13.006557 -34.13806,-15.891947 -50.66959,-7.003845 -3.03792,1.633322 -9.51656,6.511275 -11.47841,8.642424 -11.37595,12.357658 -14.90743,29.889588 -9.12859,45.318618 0.67219,1.79468 1.86176,4.37242 2.6435,5.72832 1.41093,2.44723 1.41703,2.47359 0.83407,3.60092 -0.85688,1.65702 -0.54968,4.49533 0.65791,6.07856 1.3295,1.74307 3.64411,2.57875 5.78532,2.08877 1.50192,-0.34369 1.69181,-0.30655 2.5388,0.49651 3.35268,3.17883 9.82094,6.79649 15.20295,8.50294 4.90433,1.55499 8.02718,2.00952 13.75834,2.00253 10.12971,-0.0123 18.45649,-2.92347 26.45833,-9.25006 3.90898,-3.09059 5.53881,-4.69194 7.98016,-7.84069 6.06551,-7.82303 8.97151,-16.5052 8.97392,-26.81111 0.002,-7.38431 -1.28404,-12.82827 -4.60468,-19.496183 l -1.71552,-3.444794 2.45471,-1.98332 c 1.3501,-1.090824 2.50557,-1.921915 2.56772,-1.846869 0.54138,0.653687 2.8739,5.027553 3.77036,7.070044 4.97173,11.327632 5.86909,23.293352 2.63665,35.157992 -2.74121,10.06163 -8.89072,19.55328 -16.94804,26.159 -6.38379,5.23368 -13.04371,8.43225 -22.225,10.67402 -3.67702,0.8978 -14.82312,1.17263 -19.05,0.46971 z m 3.99131,-11.83964 c -7.90151,-1.25858 -15.65452,-4.72775 -21.01447,-9.40316 l -1.14817,-1.00152 0.5522,-1.56645 c 0.49856,-1.4143 0.48984,-2.13238 -0.048,-3.95107 -0.11068,-0.37427 0.32076,-0.96819 1.22159,-1.68166 l 1.3927,-1.10304 1.66993,0.88791 c 1.7739,0.9432 3.72348,1.13016 5.74359,0.5508 1.04763,-0.30046 1.37123,-0.20246 2.97562,0.90117 2.61514,1.7989 6.46342,3.56577 9.64557,4.4286 4.15607,1.12691 11.54321,1.13188 15.65563,0.0106 7.23853,-1.97373 14.1668,-6.89807 18.13634,-12.89059 6.28239,-9.48405 7.08342,-21.06891 2.14128,-30.96809 l -1.16973,-2.34298 0.94119,-0.857898 c 0.51766,-0.471844 1.59026,-1.355239 2.38356,-1.963096 l 1.44237,-1.105196 1.43124,2.894965 c 3.35249,6.781095 4.49057,12.216265 4.22576,20.181075 -0.21508,6.46873 -1.11891,10.11861 -3.93571,15.89326 -5.78138,11.85227 -15.46854,19.49235 -28.41852,22.41316 -3.46299,0.78106 -10.87953,1.14226 -13.82397,0.67327 z m 3.59341,-13.94014 c -4.02005,-0.82494 -8.99622,-2.90626 -11.28873,-4.72159 l -0.88179,-0.69825 0.67989,-1.15095 c 0.72064,-1.21995 0.93985,-4.01465 0.44043,-5.61507 -0.25581,-0.81976 -0.0403,-1.10422 2.29714,-3.03172 l 2.57945,-2.12709 1.38778,1.01226 c 3.02244,2.20459 7.92198,2.62647 11.05864,0.95222 2.09274,-1.11705 4.05503,-3.11587 5.02372,-5.11724 0.67271,-1.38988 0.83938,-2.32911 0.86859,-4.89489 l 0.0362,-3.175 8.98062,-7.11653 8.98061,-7.11652 1.00522,1.97125 c 1.70416,3.34188 2.73106,8.13918 2.72134,12.71315 -0.0167,7.8605 -2.62586,14.28282 -8.10732,19.95578 -6.57257,6.80218 -16.73105,10.01745 -25.78174,8.16019 z m -27.97313,-4.98272 c -0.87961,-0.46087 -2.97753,-0.64253 -4.60973,-0.39915 -1.3602,0.20282 -4.80223,-8.08892 -6.01633,-14.49317 -0.72758,-3.83784 -0.72918,-10.88883 -0.003,-14.43979 1.72698,-8.44815 6.04139,-16.294053 12.2494,-22.27595 12.26146,-11.814867 31.24863,-14.610444 46.55438,-6.854434 5.28299,2.67709 12.77308,8.851639 11.65489,9.607854 -0.18121,0.122547 -1.28999,0.969906 -2.46395,1.883014 l -2.13447,1.660197 -0.84069,-0.904642 c -1.18379,-1.273845 -4.72,-3.74106 -7.0143,-4.893878 -8.66159,-4.352191 -19.46368,-4.39825 -27.97408,-0.119277 -2.56138,1.28785 -7.22299,4.836615 -9.26191,7.050874 -7.74605,8.412142 -10.19699,21.171672 -6.10501,31.782532 l 1.06411,2.75934 -0.77968,1.61062 c -0.64016,1.32241 -0.7473,2.01407 -0.59871,3.86522 l 0.18098,2.25459 -1.47029,1.20479 c -1.38973,1.13878 -1.52295,1.1772 -2.43132,0.70126 z m 12.6273,-11.30672 c -1.33544,-0.48859 -3.5483,-0.46779 -4.79051,0.045 -1.34976,0.5572 -3.14699,-6.32793 -3.14699,-12.05597 0,-13.27657 8.14876,-23.997279 21.03298,-27.671491 2.25777,-0.643851 3.67349,-0.79339 7.54202,-0.796636 5.46028,-0.0046 7.60798,0.457994 12.29756,2.648691 2.73577,1.277987 7.83015,4.684606 7.79569,5.212983 -0.0129,0.198561 -8.96231,7.365203 -16.10316,12.895403 l -2.2314,1.7281 -1.48635,-0.66977 c -2.13793,-0.96338 -6.24786,-0.88537 -8.41445,0.1597 -2.17397,1.04862 -4.45872,3.30896 -5.35597,5.2987 -0.90095,1.99799 -1.09978,7.32415 -0.30898,8.27701 0.26424,0.31839 0.40232,0.78247 0.30684,1.03129 -0.16793,0.43761 -5.31232,4.53748 -5.5892,4.45436 -0.0753,-0.0226 -0.77197,-0.27345 -1.54808,-0.55739 z"
         id="path2722"
         inkscape:connector-curvature="0"
         sodipodi:nodetypes="ssscsccccccssccccscsccscscccccccscccccsccccccscccccccssccccccscccccccccsssccccccsscsccsccccscccccccsscccscsccccccc" />
      <path
         style="fill:#35302f;stroke-width:0.35277778"
         d="m 322.88112,237.13108 c -4.50267,-4.4591 -6.46288,-8.25368 -6.81062,-13.18405 -0.39379,-5.58329 0.84941,-9.58929 6.7785,-21.84251 4.9725,-10.27631 6.53895,-14.26288 7.55926,-19.23814 1.69964,-8.28777 -0.13271,-16.21448 -5.46672,-23.64898 -0.99117,-1.38149 -1.91463,-2.69383 -2.05213,-2.91631 -0.13751,-0.22249 0.27447,-1.15993 0.9155,-2.08319 0.64103,-0.92326 1.89183,-3.07568 2.77953,-4.78316 l 1.61403,-3.10451 4.48889,5.10727 c 4.94226,5.62308 8.26829,8.56346 11.21005,9.91024 3.17667,1.45433 3.91339,1.48794 4.97445,0.22693 1.19146,-1.41597 1.492,-4.24076 0.99605,-9.36189 -0.20529,-2.11984 -0.30133,-3.92618 -0.21341,-4.01409 0.0879,-0.0879 1.23746,-0.22786 2.55455,-0.31099 1.31709,-0.0831 3.15659,-0.30086 4.08777,-0.48383 0.93118,-0.18298 1.90327,-0.33269 2.16019,-0.33269 0.2574,0 0.98113,1.30673 1.61194,2.91042 1.59004,4.04232 4.73436,10.04732 6.12657,11.70046 1.03097,1.22421 1.34143,1.38151 2.72343,1.3799 0.8579,-0.001 2.07251,-0.26799 2.69913,-0.5933 1.8327,-0.95144 5.34006,-4.4456 8.56401,-8.53178 1.64817,-2.08896 3.33984,-4.21019 3.75928,-4.71384 l 0.7626,-0.91574 2.53726,2.55239 2.53725,2.55238 -1.52019,1.85664 c -0.83611,1.02115 -3.20536,3.68227 -5.26501,5.91359 -6.70448,7.2633 -9.90673,11.69304 -12.06852,16.69463 -3.33951,7.7264 -2.39034,13.58036 3.44209,21.22898 6.45808,8.46908 7.65298,10.1201 8.83778,12.21125 0.70197,1.23895 1.7621,3.68138 2.35586,5.42763 0.97902,2.87928 1.07913,3.58573 1.07488,7.58473 -0.005,4.74666 -0.3471,6.56064 -2.31164,12.25902 l -1.125,3.2632 h -28.78518 -28.78518 z"
         id="path2720"
         inkscape:connector-curvature="0" />
    </g>
  </g>
</svg>
