<?xml version="1.0" encoding="UTF-8" standalone="no"?>
<!-- Created with Inkscape (http://www.inkscape.org/) -->

<svg
   xmlns:dc="http://purl.org/dc/elements/1.1/"
   xmlns:cc="http://creativecommons.org/ns#"
   xmlns:rdf="http://www.w3.org/1999/02/22-rdf-syntax-ns#"
   xmlns:svg="http://www.w3.org/2000/svg"
   xmlns="http://www.w3.org/2000/svg"
   xmlns:sodipodi="http://sodipodi.sourceforge.net/DTD/sodipodi-0.dtd"
   xmlns:inkscape="http://www.inkscape.org/namespaces/inkscape"
   width="50.000004"
   height="46.861702"
   viewBox="0 0 13.229168 12.398826"
   version="1.1"
   id="svg2762"
   inkscape:version="0.92.3 (2405546, 2018-03-11)"
   sodipodi:docname="sceiba_white.svg">
  <defs
     id="defs2756" />
  <sodipodi:namedview
     id="base"
     pagecolor="#ffffff"
     bordercolor="#666666"
     borderopacity="1.0"
     inkscape:pageopacity="0.0"
     inkscape:pageshadow="2"
     inkscape:zoom="7.9195959"
     inkscape:cx="47.003185"
     inkscape:cy="15.87592"
     inkscape:document-units="px"
     inkscape:current-layer="layer1"
     showgrid="false"
     fit-margin-top="0"
     fit-margin-left="0"
     fit-margin-right="0"
     fit-margin-bottom="0"
     inkscape:window-width="1366"
     inkscape:window-height="713"
     inkscape:window-x="0"
     inkscape:window-y="27"
     inkscape:window-maximized="1"
     units="px" />
  <metadata
     id="metadata2759">
    <rdf:RDF>
      <cc:Work
         rdf:about="">
        <dc:format>image/svg+xml</dc:format>
        <dc:type
           rdf:resource="http://purl.org/dc/dcmitype/StillImage" />
        <dc:title></dc:title>
      </cc:Work>
    </rdf:RDF>
  </metadata>
  <g
     inkscape:label="Layer 1"
     inkscape:groupmode="layer"
     id="layer1"
     transform="translate(-28.805015,-155.51659)">
    <g
       id="g2718"
       transform="matrix(0.05289877,0,0,0.05289877,17.288484,155.22755)">
      <path
         style="fill:#018d79;stroke-width:0.35277778"
         d="m 344.54959,134.98476 c -0.097,-0.0966 -1.44639,-0.28163 -2.99861,-0.41127 -3.14209,-0.26243 -3.6263,-0.33041 -6.81919,-0.95726 -2.12691,-0.41757 -2.22446,-0.48132 -2.05188,-1.34103 0.0997,-0.49645 0.46082,-2.887 0.80256,-5.31235 0.34175,-2.42535 0.65181,-4.4579 0.68903,-4.51677 0.0372,-0.0589 1.4747,0.17422 3.19441,0.51801 4.7927,0.95811 14.66853,0.87057 19.35452,-0.17155 5.6897,-1.26533 8.0108,-2.03958 13.22916,-4.41278 6.8295,-3.10591 15.9663,-10.83866 19.89821,-16.84044 2.27695,-3.4756 1.98455,-3.252528 4.43151,-3.380813 2.62387,-0.137558 4.05637,-0.942255 5.41934,-3.044271 1.33896,-2.064988 1.5454,-4.438787 0.55796,-6.415948 -0.44002,-0.881052 -1.12879,-1.955451 -1.53061,-2.387554 -0.40181,-0.432103 -0.67126,-0.947459 -0.59877,-1.145237 0.27259,-0.743726 0.80144,-2.861384 0.92675,-3.710978 0.0715,-0.48507 0.29361,-1.528202 0.49348,-2.318071 0.73591,-2.908187 1.01494,-9.311665 0.62149,-14.262484 -0.72414,-9.111792 -5.20044,-20.741055 -10.60955,-27.563244 -0.4049,-0.510688 -1.13307,-1.431946 -1.61814,-2.04724 -1.00259,-1.271753 -4.91274,-5.314516 -5.14018,-5.314516 -0.0824,0 -0.74553,-0.567702 -1.47358,-1.261559 -0.72806,-0.693858 -2.43499,-2.002283 -3.79318,-2.907611 -1.3582,-0.905329 -2.54882,-1.750841 -2.64584,-1.878918 -0.29953,-0.395438 -9.23658,-4.593639 -10.11979,-4.753794 -0.45803,-0.08306 -1.59545,-0.45163 -2.52761,-0.819052 -0.93216,-0.367422 -2.55564,-0.834258 -3.60774,-1.037414 -2.92473,-0.564753 -3.48067,-0.693369 -3.77,-0.872183 -0.22852,-0.141234 -7.36011,-0.703367 -8.90263,-0.701733 -4.69798,0.005 -13.7334,1.585846 -16.75695,2.931855 -0.38806,0.172753 -1.65751,0.655307 -2.82101,1.072344 -2.36608,0.848085 -6.7336,3.107736 -9.76793,5.053709 -3.80794,2.442091 -7.73863,6.005263 -11.57414,10.491955 -1.06595,1.246918 -2.03681,2.346498 -2.15747,2.443512 -0.12067,0.09701 -0.56145,0.851076 -0.97951,1.675695 -0.41806,0.824618 -0.92538,1.499305 -1.12738,1.499305 -0.202,0 -2.08828,-0.84249 -4.19173,-1.872202 l -3.82445,-1.872202 0.58292,-1.011097 c 0.32061,-0.556101 0.86073,-1.301111 1.20028,-1.655575 0.33955,-0.354464 0.61736,-0.88126 0.61736,-1.170657 0,-0.289397 0.3175,-0.724459 0.70556,-0.966804 0.38805,-0.242344 0.70555,-0.612892 0.70555,-0.823439 0,-0.210547 0.39688,-0.755658 0.88195,-1.211357 0.48507,-0.455699 0.88194,-0.963799 0.88194,-1.129111 0,-0.165312 0.67469,-0.984936 1.49931,-1.821387 0.82462,-0.83645 2.0726,-2.14196 2.77329,-2.901133 1.27276,-1.378976 2.43626,-2.422395 5.25571,-4.713265 0.82331,-0.668956 1.70366,-1.423018 1.95633,-1.675694 0.25268,-0.252675 0.55192,-0.45941 0.66499,-0.45941 0.11307,0 1.11659,-0.611675 2.23006,-1.359277 1.11346,-0.747602 2.73886,-1.73979 3.61198,-2.204861 0.87313,-0.465071 1.66688,-0.932259 1.76389,-1.038195 0.26113,-0.285145 7.38633,-3.3747851 8.81944,-3.8242984 0.6791,-0.2130072 2.02848,-0.6385662 2.99862,-0.9456864 0.97013,-0.3071199 2.39888,-0.6951282 3.175,-0.8622404 0.77611,-0.1671123 2.12548,-0.4842108 2.99861,-0.7046634 2.17279,-0.5486005 10.39744,-1.2936999 13.11954,-1.1885432 5.20387,0.2010297 9.08641,0.5532039 11.39851,1.0339264 1.3582,0.2823905 2.78695,0.5667025 3.175,0.6318048 0.72618,0.1218262 1.75604,0.4223678 5.11528,1.4927813 4.27793,1.3631488 15.07831,6.8028903 17.27289,8.6997003 0.28378,0.245268 1.1569,0.902338 1.94028,1.460156 1.77947,1.267098 2.08013,1.540391 6.18683,5.623686 3.60039,3.57987 3.97188,3.995297 5.2632,5.88571 0.46389,0.679097 1.01847,1.393472 1.2324,1.5875 1.32999,1.206235 7.26274,11.47585 7.26274,12.571832 0,0.205874 0.21704,0.874557 0.48231,1.485963 1.41834,3.269009 2.34182,5.769459 2.34092,6.338313 -7.1e-4,0.352305 0.15091,0.924422 0.33659,1.271376 0.18569,0.346949 0.39352,1.175776 0.46185,1.841835 0.0683,0.666058 0.24053,1.399194 0.38267,1.629184 0.14215,0.229993 0.41472,1.811669 0.60571,3.514834 0.191,1.703165 0.43798,3.389567 0.54886,3.747558 0.21419,0.69159 0.19832,9.911655 -0.0202,11.696326 -0.0712,0.582084 -0.23934,2.248959 -0.37355,3.704167 -0.1342,1.455208 -0.46522,3.280833 -0.73559,4.056944 -0.27038,0.776111 -0.4939,1.770454 -0.49673,2.209649 -0.003,0.439194 -0.14471,1.074194 -0.31531,1.411111 -0.1706,0.336917 -0.58095,1.485699 -0.9119,2.552851 -0.79501,2.563559 -2.22947,6.009654 -3.44565,8.277701 -0.20437,0.381138 -1.09032,2.127384 -1.96876,3.880554 -0.87845,1.75317 -1.80835,3.31453 -2.06646,3.46969 -0.2581,0.15516 -0.46927,0.45139 -0.46927,0.65829 0,0.33865 -2.09302,3.41114 -2.99138,4.39126 -0.19801,0.21603 -0.91564,1.07169 -1.59473,1.90148 -7.73765,9.45465 -20.76671,17.44084 -33.33751,20.43431 -0.97013,0.23102 -2.31951,0.55865 -2.99861,0.72807 -0.67909,0.16942 -1.94909,0.40902 -2.82222,0.53244 -0.87312,0.12341 -2.06375,0.29148 -2.64583,0.37349 -1.82587,0.25722 -11.28019,0.6005 -11.46528,0.41629 z m -3.52777,-14.1197 c -1.06716,-0.15233 -3.00048,-0.45346 -4.29629,-0.66919 l -2.35601,-0.39222 -0.22267,-2.6822 c -0.32826,-3.9542 -1.18625,-9.82789 -1.74449,-11.94263 -0.2689,-1.01864 -0.38421,-1.84973 -0.25625,-1.84687 0.12796,0.003 1.26453,0.25259 2.52571,0.55494 2.19575,0.5264 2.93759,0.63343 6.8565,0.98925 3.33652,0.30294 10.75187,-0.83503 14.34621,-2.2016 0.46525,-0.17688 0.96111,-0.34804 1.10193,-0.38034 0.65111,-0.14937 6.51588,-3.334866 7.98128,-4.335097 0.90226,-0.615847 3.14859,-2.628716 4.99185,-4.473042 l 3.35139,-3.353315 2.13015,0.08382 c 2.38823,0.09398 4.06782,-0.465103 5.56464,-1.852313 0.54154,-0.501883 1.17488,-0.912576 1.40742,-0.912654 0.70757,-2.25e-4 4.83128,2.235765 4.85037,2.630008 0.17112,3.534936 0.22014,3.724243 1.31847,5.090968 0.62322,0.775504 1.13312,1.633555 1.13312,1.906778 0,1.067202 -3.44173,5.501867 -7.02901,9.056857 -2.99995,2.97296 -5.31706,4.83789 -8.14043,6.55184 -1.26118,0.76561 -2.37255,1.47283 -2.46972,1.5716 -0.0972,0.0988 -0.73216,0.47234 -1.41111,0.83014 -0.67895,0.3578 -1.63133,0.85952 -2.1164,1.11494 -1.84733,0.97271 -4.96133,2.23715 -6.61458,2.68584 -3.12511,0.84816 -4.04189,1.047 -7.17321,1.55578 -3.81973,0.62064 -10.81879,0.8341 -13.72887,0.41871 z m -2.51374,-18.40576 c -0.089,-0.089 -0.86956,-0.23515 -1.7345,-0.32468 -0.86493,-0.0895 -2.42083,-0.37387 -3.45756,-0.63186 l -1.88497,-0.46907 -1.13927,-3.351394 c -2.5696,-7.558937 -6.73359,-14.998248 -9.37932,-16.756944 -0.58378,-0.388055 -1.15947,-1.023055 -1.2793,-1.411111 -0.37072,-1.200453 -3.51008,-5.219298 -5.4841,-7.020468 -1.03325,-0.942774 -3.11876,-2.67933 -4.63448,-3.859008 l -2.75584,-2.144871 0.19974,-3.440564 c 0.10985,-1.892311 0.34126,-3.803707 0.51424,-4.247547 0.17298,-0.443844 0.5152,-1.481674 0.76049,-2.306292 0.24529,-0.824618 0.56616,-1.499305 0.71304,-1.499305 0.45464,0 7.25345,3.060665 10.31742,4.644654 1.75148,0.905472 3.78529,1.905886 9.96265,4.90057 l 6.72534,3.260334 -0.0767,1.622915 c -0.0746,1.57837 0.46484,4.619057 0.88255,4.974304 0.11407,0.09701 0.51404,0.732014 0.88883,1.411111 0.82748,1.499369 3.29401,3.740281 5.28125,4.798166 1.28994,0.686693 3.45122,1.201678 5.67032,1.351118 2.68827,0.181031 6.70345,-1.519403 9.04651,-3.831202 l 1.54549,-1.524868 4.27664,2.065334 4.27664,2.065331 0.0322,1.603607 c 0.0395,1.96862 1.02518,4.283361 2.44046,5.731168 l 1.06388,1.088327 -1.36059,1.528593 c -0.74831,0.840726 -1.36508,1.647655 -1.37059,1.793176 -0.005,0.145521 -0.20339,0.264583 -0.43975,0.264583 -0.23636,0 -0.7523,0.373458 -1.14653,0.829903 -1.10981,1.284951 -5.91672,4.381888 -9.16143,5.902406 -3.19032,1.495034 -5.72869,2.233914 -9.54702,2.778984 -2.49894,0.35672 -9.44769,0.5026 -9.74569,0.2046 z m 47.04763,-16.090333 c -2.08407,-0.993531 -2.19464,-1.107556 -1.95263,-2.01367 0.37928,-1.420025 0.23357,-4.798148 -0.21338,-4.947133 -0.21303,-0.07101 -0.38733,-0.337216 -0.38733,-0.591569 0,-0.254353 -0.47625,-0.972288 -1.05833,-1.595409 -0.58208,-0.623122 -1.05833,-1.257928 -1.05833,-1.410678 0,-0.152749 -0.22325,-0.363389 -0.49609,-0.468093 -0.4175,-0.160207 -0.424,-0.403737 -0.041,-1.53705 0.25028,-0.740674 0.56046,-2.696054 0.68929,-4.34529 0.26122,-3.344009 -0.28697,-10.77758 -0.84433,-11.449153 -0.19802,-0.238601 -0.28057,-0.513288 -0.18344,-0.610414 0.27038,-0.27038 -1.90178,-6.153941 -3.09106,-8.372532 -1.26132,-2.352975 -2.81002,-4.745969 -3.17707,-4.909104 -0.14553,-0.06468 -0.26459,-0.267345 -0.26459,-0.450373 0,-0.313112 -1.13448,-1.659386 -3.19455,-3.790929 -1.32697,-1.373015 -4.81237,-4.284162 -5.12925,-4.284162 -0.15058,0 -0.60151,-0.306839 -1.00207,-0.68187 -0.40056,-0.375027 -2.38528,-1.500392 -4.41049,-2.500813 -3.26427,-1.612496 -4.96773,-2.199419 -10.42892,-3.593255 -0.77611,-0.198084 -3.63361,-0.368848 -6.35,-0.379475 -8.35097,-0.03267 -14.50297,1.84444 -21.67814,6.614485 -3.21996,2.140627 -9.54269,8.481134 -9.54269,9.569521 0,0.225509 -0.22781,0.599083 -0.50625,0.830163 -0.40456,0.33576 -1.18977,0.09643 -3.9092,-1.191524 -1.87163,-0.886421 -3.54882,-1.611676 -3.72709,-1.611676 -1.95331,0 5.79969,-9.323177 10.96476,-13.185407 1.06715,-0.797973 2.01965,-1.531587 2.11667,-1.630253 0.32474,-0.330276 4.21999,-2.823229 4.4113,-2.823229 0.10386,0 0.78099,-0.369058 1.50474,-0.820129 0.72374,-0.451072 2.75588,-1.399176 4.51585,-2.106898 10.6143,-4.268243 23.90473,-4.712249 35.34898,-1.180938 2.89035,0.891864 11.01635,4.705889 11.01635,5.17064 0,0.132704 0.635,0.527626 1.41111,0.877603 0.77611,0.349977 1.41111,0.766886 1.41111,0.926463 0,0.159577 0.43657,0.522854 0.97014,0.807281 0.53358,0.284427 1.54579,1.042566 2.24937,1.684754 0.70357,0.642187 1.8942,1.73137 2.64583,2.420406 0.75164,0.689037 1.96932,1.994788 2.70597,2.901666 0.73666,0.906883 1.53041,1.855534 1.76389,2.108116 0.47118,0.509714 1.55344,2.015218 3.058,4.253893 1.49231,2.220461 4.95125,9.019113 4.95125,9.731837 0,0.343408 0.11043,0.734808 0.2454,0.869777 0.13496,0.134966 0.27797,0.439236 0.31778,0.676155 0.0398,0.236918 0.41922,1.700763 0.84313,3.252985 0.4239,1.552222 0.82116,3.298472 0.8828,3.880555 0.0616,0.582084 0.30347,2.465296 0.5374,4.184918 0.45361,3.334484 0.28996,9.631948 -0.33588,12.924804 -0.20282,1.067153 -0.42483,2.416528 -0.49336,2.998611 -0.0685,0.582084 -0.33295,1.733021 -0.58761,2.557639 -0.38508,1.24695 -0.6169,1.503313 -1.37731,1.523115 -2.17088,0.05653 -3.33381,0.388217 -4.5532,1.298649 -0.71499,0.533827 -1.3529,1.08966 -1.41758,1.235181 -0.1986,0.446856 -0.85267,0.276962 -3.1499,-0.818191 z m -18.07556,-9.481714 c -0.6791,-0.368776 -2.47173,-1.277941 -3.98363,-2.020369 -2.55419,-1.254245 -2.73154,-1.412339 -2.5036,-2.23181 0.13492,-0.485069 0.29367,-2.054105 0.35278,-3.486746 0.1233,-2.988352 -0.58795,-5.071438 -2.68499,-7.863755 -1.3103,-1.744712 -4.46075,-4.058853 -5.97195,-4.386643 -0.49897,-0.108232 -1.14535,-0.290612 -1.43639,-0.405289 -0.29104,-0.114677 -1.48166,-0.23585 -2.64583,-0.269272 -3.0103,-0.08643 -6.66898,1.261749 -8.31235,3.06299 -0.62826,0.688618 0.28622,1.026869 -8.09182,-2.993013 -12.68072,-6.084358 -19.40278,-9.448994 -19.40278,-9.711792 0,-0.832453 4.75082,-6.028669 7.53257,-8.238758 4.31858,-3.431106 11.00512,-6.546969 15.39799,-7.175324 1.06715,-0.152646 2.25778,-0.327951 2.64583,-0.389569 2.87985,-0.457278 6.41738,-0.442448 9.525,0.03993 4.82279,0.748613 4.93049,0.771299 5.7538,1.21192 0.39941,0.21376 1.05579,0.388655 1.45861,0.388655 0.84865,0 5.96783,2.460466 7.36228,3.538586 0.52115,0.402918 1.55319,1.191193 2.29345,1.751722 3.65656,2.768787 8.31126,8.190643 9.82778,11.447505 0.36628,0.786634 0.80146,1.668367 0.96706,1.959408 0.60448,1.062373 2.16081,5.147631 2.35191,6.173611 0.0723,0.388056 0.30149,1.499306 0.50934,2.469445 0.5355,2.499293 0.65934,10.220413 0.20088,12.523611 l -0.38622,1.940277 -1.76389,-0.0468 c -2.2964,-0.06092 -4.64021,0.794318 -6.13953,2.240273 -0.66035,0.636852 -1.29535,1.154265 -1.41111,1.149809 -0.11576,-0.0044 -0.76609,-0.309831 -1.44519,-0.678607 z m -65.0233,-13.228496 c -0.93483,-0.646984 -2.71452,-1.630422 -3.95485,-2.185423 -2.27997,-1.020195 -2.9036,-1.654369 -2.33721,-2.376724 0.17089,-0.217942 0.41362,-1.070903 0.53941,-1.895471 0.12578,-0.824565 0.44754,-2.17394 0.71502,-2.998611 0.26747,-0.824668 0.58169,-1.896273 0.69828,-2.381342 0.48298,-2.00956 0.59466,-2.008847 4.77921,0.03048 3.88268,1.892194 3.91677,1.91958 3.69512,2.968149 -0.12304,0.582083 -0.37379,1.244995 -0.55723,1.473133 -0.18343,0.228141 -0.29484,0.625016 -0.24757,0.881944 0.0473,0.256932 -0.11221,1.375745 -0.35438,2.486261 -0.45402,2.082003 -0.68035,3.521276 -0.72264,4.595467 -0.0328,0.834372 -0.27756,0.769444 -2.25316,-0.597845 z m -12.05865,-5.35432 c -1.35819,-0.451337 -3.14615,-0.99012 -3.97323,-1.197292 -1.32448,-0.331763 -1.4612,-0.456287 -1.14653,-1.04424 0.1965,-0.367157 0.35726,-0.96224 0.35726,-1.322409 0,-1.312305 2.89782,-9.622088 3.35545,-9.622088 0.18171,0 7.31936,3.501655 7.49436,3.676657 0.16037,0.160377 -0.8597,3.533475 -1.54179,5.098271 -0.28535,0.65461 -0.43824,1.270776 -0.33976,1.369257 0.0985,0.09848 -0.0535,0.511023 -0.33766,0.916764 -0.28419,0.40574 -0.51671,1.258009 -0.51671,1.893937 0,1.342358 -0.006,1.342785 -3.35139,0.231143 z"
         id="path2726"
         inkscape:connector-curvature="0"
         sodipodi:nodetypes="ccsccccsssssccccccccsccccsscccccccsssccsscsssscccscccccccsscscssccscccccccccccsccccsccccccccccccccssccccccscccscscsccccccccccccccccsscsccccccsccccccccsscccccccsssccsccccscscsssssccsscscsssssccccccsccccscccccccccccsccsccsscccscsccccccsccccccccccccccccsccccscssccccsc" />
      <path
         style="fill:#0f6684;stroke-width:0.35277778"
         d="m 422.16071,153.57287 c -0.48507,-0.0846 -2.07257,-0.32787 -3.52778,-0.5405 -7.73254,-1.1298 -15.94222,-5.17859 -21.90357,-10.80223 -2.2937,-2.16376 -6.21819,-6.74048 -5.92065,-6.90464 0.16851,-0.093 1.16097,-0.69211 3.03316,-1.83108 l 1.49087,-0.90699 2.56607,2.70673 c 3.35875,3.54286 6.29601,5.73699 10.31416,7.70464 6.127,3.00035 9.89965,3.87991 16.41718,3.82755 3.87112,-0.0311 5.40336,-0.20531 8.1865,-0.93077 3.94319,-1.02785 8.37477,-3.0097 11.61098,-5.19256 2.86043,-1.9294 6.9746,-5.8877 8.65405,-8.32619 0.95196,-1.3822 1.5221,-1.8862 2.13372,-1.8862 1.21784,0 2.98462,-0.83674 3.9277,-1.86014 1.41728,-1.53799 1.47559,-4.62072 0.11703,-6.18716 -0.64994,-0.74939 -0.65067,-0.83766 -0.0285,-3.44913 2.25196,-9.45214 0.39558,-19.499967 -5.14489,-27.847133 -5.57831,-8.404183 -14.97133,-14.280628 -25.21226,-15.773259 l -2.83322,-0.412947 v -2.926782 -2.926782 h 1.89407 c 1.04174,0 3.25169,0.236749 4.911,0.526108 17.22419,3.003649 30.27771,15.692539 34.35756,33.397835 0.43361,1.88175 0.59456,4.17794 0.58946,8.40939 -0.008,6.22903 -0.60172,9.77773 -2.46806,14.73951 -5.18359,13.78092 -17.23234,23.93081 -31.6993,26.70355 -2.86686,0.54946 -9.85788,0.9697 -11.46528,0.68918 z m -1.41111,-9.32692 c -5.17746,-0.5031 -10.2835,-2.30575 -14.7237,-5.19808 -2.70029,-1.75896 -8.55964,-7.20402 -8.55964,-7.95443 0,-0.42414 2.23172,-2.49541 4.06079,-3.76885 l 1.41496,-0.98513 2.58301,2.08445 c 4.24164,3.42294 8.56526,5.29414 13.63708,5.90196 7.30792,0.87579 14.58599,-1.56843 20.15409,-6.76842 2.51076,-2.34478 2.75934,-2.48824 4.35125,-2.51132 1.24029,-0.018 2.04229,-0.2763 3.02199,-0.97337 l 1.33364,-0.9489 1.35632,0.69195 c 1.13183,0.57741 1.35632,0.87256 1.35632,1.78326 0,0.60023 0.34255,1.70081 0.76122,2.44573 l 0.76122,1.35441 -1.46586,1.90002 c -5.73843,7.43808 -13.63936,11.87755 -23.06789,12.96166 -3.15893,0.36321 -3.08153,0.36338 -6.9748,-0.0149 z m -4.05695,-12.52037 c -3.16055,-0.70603 -5.01827,-1.45489 -7.20374,-2.90389 -2.72219,-1.80485 -5.09063,-4.03391 -4.60502,-4.33403 0.21517,-0.13298 1.21392,-1.36172 2.21944,-2.73054 1.00551,-1.36881 3.01884,-4.05375 4.47404,-5.96653 1.45521,-1.91278 2.96334,-4.15173 3.35139,-4.97545 0.9474,-2.01101 1.69746,-1.83934 1.98277,0.4538 0.60575,4.86876 4.00391,8.02534 8.6109,7.99876 2.53201,-0.0146 4.12558,-0.5957 5.89563,-2.14982 l 1.26853,-1.11379 2.68133,1.32676 c 1.57663,0.78013 2.61459,1.50067 2.51934,1.7489 -0.27091,0.70598 0.48503,2.88604 1.34905,3.89052 l 0.81498,0.94747 -1.09599,1.21063 c -1.5383,1.69923 -4.94698,4.06785 -7.44598,5.17408 -4.25691,1.88441 -10.19754,2.455 -14.81667,1.42313 z m 33.23199,-9.91247 c -0.74317,-0.40294 -0.93249,-0.70858 -0.76526,-1.23548 0.39403,-1.24146 -0.22401,-3.50952 -1.2859,-4.71895 -0.99996,-1.13888 -1.01618,-1.21835 -0.62294,-3.05194 0.23826,-1.111 0.32352,-3.2588 0.20802,-5.24033 -0.66134,-11.345538 -8.30408,-20.513481 -19.56432,-23.468623 -1.60024,-0.419967 -2.84714,-0.82932 -2.77089,-0.909672 0.20844,-0.219665 0.5367,-2.787552 0.55181,-4.316621 l 0.0133,-1.348299 2.02847,0.234555 c 11.97841,1.385072 21.83152,8.469993 26.91517,19.353459 3.08696,6.608811 3.85548,14.799531 2.05829,21.936811 -0.34046,1.3521 -0.49244,1.50379 -1.70012,1.6969 -0.72943,0.11664 -1.73235,0.53152 -2.2287,0.92195 -1.06658,0.83897 -1.51651,0.86216 -2.83696,0.14624 z m -13.29672,-7.01942 -2.28342,-1.15266 -0.015,-2.77589 c -0.0166,-3.06904 -0.5185,-4.40176 -2.41867,-6.42279 -2.4469,-2.60253 -5.83491,-3.41845 -9.10059,-2.19168 -1.09798,0.41246 -2.18898,0.98207 -2.42444,1.26578 -0.48961,0.58995 -0.68756,0.6213 -1.3341,0.2113 -0.36137,-0.22917 -0.15394,-0.94538 0.94352,-3.25779 1.249,-2.63168 3.92621,-10.609968 3.93138,-11.715792 10e-4,-0.231267 0.17156,-1.031261 0.37885,-1.77777 0.36782,-1.324632 0.40808,-1.351838 1.67373,-1.130805 8.4645,1.478252 15.42905,7.500355 18.18086,15.720647 0.99781,2.98068 1.46135,7.71715 1.01817,10.40356 -0.26126,1.58358 -0.37708,1.75417 -1.13304,1.66884 -1.1714,-0.13222 -3.02437,0.53274 -4.16946,1.49628 l -0.96434,0.81144 -2.28342,-1.15267 z"
         id="path2724"
         inkscape:connector-curvature="0"
         sodipodi:nodetypes="ccscscscscccscscsscccssccssccssccsccccccscccccccsccccccccccccccccccccscccssccccccccscccccccscccccc" />
      <path
         style="fill:#007e3e;stroke-width:0.35277778"
         d="m 261.11765,170.55023 c -14.69374,-2.44354 -27.93563,-11.15262 -35.59816,-23.41262 -3.04397,-4.87033 -5.69253,-11.50166 -6.97452,-17.46246 -1.03595,-4.81678 -1.12641,-15.02771 -0.17513,-19.7677 4.36139,-21.731559 21.0086,-38.102049 42.39503,-41.690324 4.64146,-0.778757 12.63742,-0.787178 17.28611,-0.0182 9.90646,1.638692 19.77017,6.592454 27.10601,13.613208 l 3.13824,3.00344 -2.54106,1.955165 -2.54107,1.955169 -2.53836,-2.489165 c -13.26358,-13.006557 -34.13806,-15.891947 -50.66959,-7.003845 -3.03792,1.633322 -9.51656,6.511275 -11.47841,8.642424 -11.37595,12.357658 -14.90743,29.889588 -9.12859,45.318618 0.67219,1.79468 1.86176,4.37242 2.6435,5.72832 1.41093,2.44723 1.41703,2.47359 0.83407,3.60092 -0.85688,1.65702 -0.54968,4.49533 0.65791,6.07856 1.3295,1.74307 3.64411,2.57875 5.78532,2.08877 1.50192,-0.34369 1.69181,-0.30655 2.5388,0.49651 3.35268,3.17883 9.82094,6.79649 15.20295,8.50294 4.90433,1.55499 8.02718,2.00952 13.75834,2.00253 10.12971,-0.0123 18.45649,-2.92347 26.45833,-9.25006 3.90898,-3.09059 5.53881,-4.69194 7.98016,-7.84069 6.06551,-7.82303 8.97151,-16.5052 8.97392,-26.81111 0.002,-7.38431 -1.28404,-12.82827 -4.60468,-19.496183 l -1.71552,-3.444794 2.45471,-1.98332 c 1.3501,-1.090824 2.50557,-1.921915 2.56772,-1.846869 0.54138,0.653687 2.8739,5.027553 3.77036,7.070044 4.97173,11.327632 5.86909,23.293352 2.63665,35.157992 -2.74121,10.06163 -8.89072,19.55328 -16.94804,26.159 -6.38379,5.23368 -13.04371,8.43225 -22.225,10.67402 -3.67702,0.8978 -14.82312,1.17263 -19.05,0.46971 z m 3.99131,-11.83964 c -7.90151,-1.25858 -15.65452,-4.72775 -21.01447,-9.40316 l -1.14817,-1.00152 0.5522,-1.56645 c 0.49856,-1.4143 0.48984,-2.13238 -0.048,-3.95107 -0.11068,-0.37427 0.32076,-0.96819 1.22159,-1.68166 l 1.3927,-1.10304 1.66993,0.88791 c 1.7739,0.9432 3.72348,1.13016 5.74359,0.5508 1.04763,-0.30046 1.37123,-0.20246 2.97562,0.90117 2.61514,1.7989 6.46342,3.56577 9.64557,4.4286 4.15607,1.12691 11.54321,1.13188 15.65563,0.0106 7.23853,-1.97373 14.1668,-6.89807 18.13634,-12.89059 6.28239,-9.48405 7.08342,-21.06891 2.14128,-30.96809 l -1.16973,-2.34298 0.94119,-0.857898 c 0.51766,-0.471844 1.59026,-1.355239 2.38356,-1.963096 l 1.44237,-1.105196 1.43124,2.894965 c 3.35249,6.781095 4.49057,12.216265 4.22576,20.181075 -0.21508,6.46873 -1.11891,10.11861 -3.93571,15.89326 -5.78138,11.85227 -15.46854,19.49235 -28.41852,22.41316 -3.46299,0.78106 -10.87953,1.14226 -13.82397,0.67327 z m 3.59341,-13.94014 c -4.02005,-0.82494 -8.99622,-2.90626 -11.28873,-4.72159 l -0.88179,-0.69825 0.67989,-1.15095 c 0.72064,-1.21995 0.93985,-4.01465 0.44043,-5.61507 -0.25581,-0.81976 -0.0403,-1.10422 2.29714,-3.03172 l 2.57945,-2.12709 1.38778,1.01226 c 3.02244,2.20459 7.92198,2.62647 11.05864,0.95222 2.09274,-1.11705 4.05503,-3.11587 5.02372,-5.11724 0.67271,-1.38988 0.83938,-2.32911 0.86859,-4.89489 l 0.0362,-3.175 8.98062,-7.11653 8.98061,-7.11652 1.00522,1.97125 c 1.70416,3.34188 2.73106,8.13918 2.72134,12.71315 -0.0167,7.8605 -2.62586,14.28282 -8.10732,19.95578 -6.57257,6.80218 -16.73105,10.01745 -25.78174,8.16019 z m -27.97313,-4.98272 c -0.87961,-0.46087 -2.97753,-0.64253 -4.60973,-0.39915 -1.3602,0.20282 -4.80223,-8.08892 -6.01633,-14.49317 -0.72758,-3.83784 -0.72918,-10.88883 -0.003,-14.43979 1.72698,-8.44815 6.04139,-16.294053 12.2494,-22.27595 12.26146,-11.814867 31.24863,-14.610444 46.55438,-6.854434 5.28299,2.67709 12.77308,8.851639 11.65489,9.607854 -0.18121,0.122547 -1.28999,0.969906 -2.46395,1.883014 l -2.13447,1.660197 -0.84069,-0.904642 c -1.18379,-1.273845 -4.72,-3.74106 -7.0143,-4.893878 -8.66159,-4.352191 -19.46368,-4.39825 -27.97408,-0.119277 -2.56138,1.28785 -7.22299,4.836615 -9.26191,7.050874 -7.74605,8.412142 -10.19699,21.171672 -6.10501,31.782532 l 1.06411,2.75934 -0.77968,1.61062 c -0.64016,1.32241 -0.7473,2.01407 -0.59871,3.86522 l 0.18098,2.25459 -1.47029,1.20479 c -1.38973,1.13878 -1.52295,1.1772 -2.43132,0.70126 z m 12.6273,-11.30672 c -1.33544,-0.48859 -3.5483,-0.46779 -4.79051,0.045 -1.34976,0.5572 -3.14699,-6.32793 -3.14699,-12.05597 0,-13.27657 8.14876,-23.997279 21.03298,-27.671491 2.25777,-0.643851 3.67349,-0.79339 7.54202,-0.796636 5.46028,-0.0046 7.60798,0.457994 12.29756,2.648691 2.73577,1.277987 7.83015,4.684606 7.79569,5.212983 -0.0129,0.198561 -8.96231,7.365203 -16.10316,12.895403 l -2.2314,1.7281 -1.48635,-0.66977 c -2.13793,-0.96338 -6.24786,-0.88537 -8.41445,0.1597 -2.17397,1.04862 -4.45872,3.30896 -5.35597,5.2987 -0.90095,1.99799 -1.09978,7.32415 -0.30898,8.27701 0.26424,0.31839 0.40232,0.78247 0.30684,1.03129 -0.16793,0.43761 -5.31232,4.53748 -5.5892,4.45436 -0.0753,-0.0226 -0.77197,-0.27345 -1.54808,-0.55739 z"
         id="path2722"
         inkscape:connector-curvature="0"
         sodipodi:nodetypes="ssscsccccccssccccscsccscscccccccscccccsccccccscccccccssccccccscccccccccsssccccccsscsccsccccscccccccsscccscsccccccc" />
      <path
         style="fill:#35302f;stroke-width:0.35277778"
         d="m 322.88112,237.13108 c -4.50267,-4.4591 -6.46288,-8.25368 -6.81062,-13.18405 -0.39379,-5.58329 0.84941,-9.58929 6.7785,-21.84251 4.9725,-10.27631 6.53895,-14.26288 7.55926,-19.23814 1.69964,-8.28777 -0.13271,-16.21448 -5.46672,-23.64898 -0.99117,-1.38149 -1.91463,-2.69383 -2.05213,-2.91631 -0.13751,-0.22249 0.27447,-1.15993 0.9155,-2.08319 0.64103,-0.92326 1.89183,-3.07568 2.77953,-4.78316 l 1.61403,-3.10451 4.48889,5.10727 c 4.94226,5.62308 8.26829,8.56346 11.21005,9.91024 3.17667,1.45433 3.91339,1.48794 4.97445,0.22693 1.19146,-1.41597 1.492,-4.24076 0.99605,-9.36189 -0.20529,-2.11984 -0.30133,-3.92618 -0.21341,-4.01409 0.0879,-0.0879 1.23746,-0.22786 2.55455,-0.31099 1.31709,-0.0831 3.15659,-0.30086 4.08777,-0.48383 0.93118,-0.18298 1.90327,-0.33269 2.16019,-0.33269 0.2574,0 0.98113,1.30673 1.61194,2.91042 1.59004,4.04232 4.73436,10.04732 6.12657,11.70046 1.03097,1.22421 1.34143,1.38151 2.72343,1.3799 0.8579,-0.001 2.07251,-0.26799 2.69913,-0.5933 1.8327,-0.95144 5.34006,-4.4456 8.56401,-8.53178 1.64817,-2.08896 3.33984,-4.21019 3.75928,-4.71384 l 0.7626,-0.91574 2.53726,2.55239 2.53725,2.55238 -1.52019,1.85664 c -0.83611,1.02115 -3.20536,3.68227 -5.26501,5.91359 -6.70448,7.2633 -9.90673,11.69304 -12.06852,16.69463 -3.33951,7.7264 -2.39034,13.58036 3.44209,21.22898 6.45808,8.46908 7.65298,10.1201 8.83778,12.21125 0.70197,1.23895 1.7621,3.68138 2.35586,5.42763 0.97902,2.87928 1.07913,3.58573 1.07488,7.58473 -0.005,4.74666 -0.3471,6.56064 -2.31164,12.25902 l -1.125,3.2632 h -28.78518 -28.78518 z"
         id="path2720"
         inkscape:connector-curvature="0" />
    </g>
    <path
       style="opacity:0.98999999;fill:#ffffff;fill-opacity:1;stroke:none;stroke-width:0.01262691;stroke-miterlimit:4;stroke-dasharray:none;stroke-opacity:1"
       d="M 6.6602181,24.507283 C 6.0624514,24.4364 6.0204749,24.406695 5.8709763,23.948777 5.5866876,23.077993 5.544754,21.852233 5.766901,20.906555 c 0.8168332,-3.477253 4.71308,-5.372054 7.82916,-3.807434 0.491062,0.246568 1.034892,0.564001 1.208512,0.705408 l 0.315673,0.257103 -0.441942,0.380669 c -1.591784,1.37109 -3.132564,2.484215 -3.29568,2.380938 -0.0972,-0.06154 -0.495038,-0.112761 -0.884094,-0.113825 -0.8183572,-0.0022 -1.3769609,0.302119 -1.855961,1.011224 -0.2512885,0.372004 -0.2906369,0.567488 -0.2580408,1.28195 l 0.038461,0.843013 -0.4883736,0.38811 c -0.2686055,0.213461 -0.5231764,0.379184 -0.565713,0.368273 -0.042536,-0.01091 -0.3614446,-0.05353 -0.7086845,-0.0947 z"
       id="path817"
       inkscape:connector-curvature="0"
       transform="matrix(0.26458333,0,0,0.26458333,28.805015,155.51659)" />
    <path
       style="opacity:0.98999999;fill:#ffffff;fill-opacity:1;stroke:none;stroke-width:0.01262691;stroke-miterlimit:4;stroke-dasharray:none;stroke-opacity:1"
       d="M 9.3118685,32.953315 C 5.8432474,32.707806 2.6321156,30.464091 1.0927098,27.210338 0.30268499,25.540507 0.11945006,24.717255 0.10906083,22.79092 0.09888062,20.903341 0.34009052,19.827228 1.1220721,18.271562 1.7411753,17.039925 2.2050077,16.386991 3.0883357,15.503663 6.9997834,11.592215 13.152764,11.483102 17.343432,15.250873 l 0.644825,0.579753 -0.416978,0.34032 -0.416978,0.340321 -0.890758,-0.751882 C 10.876238,11.212004 2.6038769,14.505414 1.8074291,21.514683 c -0.1868141,1.644087 0.071234,3.223461 0.7758633,4.748637 0.2918889,0.631796 0.3747573,0.981613 0.359953,1.519493 -0.01658,0.602394 0.025964,0.741204 0.3085358,1.006666 0.2367479,0.222413 0.4749968,0.309494 0.8579497,0.313585 0.3990671,0.0043 0.6707016,0.110491 1.0983929,0.429547 2.5261147,1.884478 6.0295112,2.282051 8.9574452,1.016513 0.983597,-0.425139 2.552282,-1.630488 3.230086,-2.481941 1.212704,-1.523389 1.798818,-3.062712 1.914852,-5.02902 0.0942,-1.596275 -0.09086,-2.704475 -0.682577,-4.087578 l -0.454525,-1.062417 0.342931,-0.294976 c 0.188612,-0.162237 0.400268,-0.294976 0.470348,-0.294976 0.174883,0 1.054084,1.913687 1.30526,2.841054 0.295877,1.092411 0.387527,3.021477 0.19924,4.193654 -0.522073,3.25016 -2.578942,6.108155 -5.434073,7.550579 -1.04067,0.52575 -2.369372,0.946392 -3.219861,1.019344 -0.416688,0.03574 -0.899667,0.07982 -1.073287,0.09794 -0.17362,0.01813 -0.8270626,-0.0032 -1.4520945,-0.04748 z"
       id="path819"
       inkscape:connector-curvature="0"
       transform="matrix(0.26458333,0,0,0.26458333,28.805015,155.51659)" />
    <path
       style="opacity:0.98999999;fill:#ffffff;fill-opacity:1;stroke:none;stroke-width:0.01262691;stroke-miterlimit:4;stroke-dasharray:none;stroke-opacity:1"
       d="M 4.4590923,26.74686 C 4.290989,26.684674 4.0381745,26.649875 3.897282,26.669528 3.5794656,26.713861 3.2070252,26.092644 2.7900358,24.822683 2.3714862,23.54797 2.3717097,21.269092 2.7905014,20.076135 4.7239728,14.56851 11.124888,12.630352 15.625322,16.18983 c 0.579441,0.45829 0.908195,0.829826 0.800755,0.904957 -0.02373,0.01659 -0.203045,0.151225 -0.398485,0.299182 l -0.355343,0.269014 -0.579132,-0.442061 c -1.477083,-1.127483 -3.228416,-1.53423 -5.1011014,-1.18473 -1.603178,0.299201 -3.4838559,1.683677 -4.2566322,3.133554 -0.8140596,1.527332 -0.9815237,3.48907 -0.4353716,5.100109 0.1411567,0.416383 0.200929,0.790043 0.1413901,0.883883 -0.056728,0.08941 -0.1057976,0.418258 -0.1090435,0.730774 -0.00718,0.691292 -0.3692207,1.048806 -0.8732661,0.862348 z"
       id="path821"
       inkscape:connector-curvature="0"
       transform="matrix(0.26458333,0,0,0.26458333,28.805015,155.51659)" />
    <path
       style="opacity:0.98999999;fill:#ffffff;fill-opacity:1;stroke:none;stroke-width:0.01262691;stroke-miterlimit:4;stroke-dasharray:none;stroke-opacity:1"
       d="M 9.8155512,27.669389 C 8.8239911,27.385332 7.9060003,26.867245 7.9785896,26.632663 c 0.030624,-0.09897 0.078333,-0.475391 0.1060195,-0.836498 0.043622,-0.568951 0.1069925,-0.69977 0.4749214,-0.980403 l 0.4245826,-0.323845 0.4164159,0.253884 c 0.5982787,0.364764 1.691225,0.349133 2.257207,-0.03228 0.681996,-0.459598 1.000263,-1.03511 1.000263,-1.808746 v -0.669551 l 1.546796,-1.223894 c 0.850738,-0.673143 1.645733,-1.309344 1.766655,-1.413781 0.202017,-0.174476 0.239865,-0.14466 0.466376,0.367407 0.385839,0.872251 0.540208,2.115406 0.386196,3.110072 -0.353052,2.280138 -2.213747,4.211317 -4.519478,4.69068 -0.906967,0.188558 -1.586349,0.162268 -2.4889928,-0.09632 z"
       id="path823"
       inkscape:connector-curvature="0"
       transform="matrix(0.26458333,0,0,0.26458333,28.805015,155.51659)" />
    <path
       style="opacity:0.98999999;fill:#ffffff;fill-opacity:1;stroke:none;stroke-width:0.01262691;stroke-miterlimit:4;stroke-dasharray:none;stroke-opacity:1"
       d="M 8.4279851,30.317565 C 7.5579899,30.063885 6.5156683,29.554219 5.7549772,29.010538 5.2479341,28.648145 5.2297037,28.611342 5.260043,28.011381 c 0.038053,-0.752494 0.2958655,-1.083512 0.6826629,-0.876504 0.1424325,0.07623 0.5480274,0.138595 0.9013219,0.138595 0.4707599,0 0.7681203,0.08301 1.1131555,0.310762 1.6225928,1.071024 4.1787847,1.175467 6.0659507,0.247846 2.931828,-1.441114 4.249054,-4.78253 3.103576,-7.872861 l -0.335268,-0.904504 0.291267,-0.310039 c 0.160196,-0.170521 0.341746,-0.310039 0.403444,-0.310039 0.167833,0 0.802326,1.47808 0.981716,2.28695 0.09901,0.446455 0.135974,1.263907 0.09991,2.209709 -0.04714,1.236203 -0.114512,1.641039 -0.381783,2.293939 -0.83987,2.051661 -2.20801,3.602824 -3.914576,4.438247 -0.574867,0.281418 -1.383872,0.597465 -1.797788,0.702327 -1.0257,0.259853 -3.0727511,0.235442 -4.0456489,-0.04824 z"
       id="path825"
       inkscape:connector-curvature="0"
       transform="matrix(0.26458333,0,0,0.26458333,28.805015,155.51659)" />
    <path
       style="opacity:0.98999999;fill:#ffffff;fill-opacity:1;stroke:none;stroke-width:0.01262691;stroke-miterlimit:4;stroke-dasharray:none;stroke-opacity:1"
       d="M 21.025222,46.174274 C 20.1691,45.269052 19.830659,44.5704 19.75987,43.562182 c -0.07175,-1.021933 0.127863,-1.643541 1.406118,-4.378692 1.199746,-2.567159 1.514732,-3.587048 1.513976,-4.902085 -7.07e-4,-1.236748 -0.259034,-2.081404 -1.01043,-3.303867 l -0.556115,-0.904755 0.463159,-0.799877 c 0.254737,-0.439933 0.481579,-0.822074 0.504092,-0.849202 0.02251,-0.02713 0.547641,0.486083 1.166951,1.140469 1.155307,1.220742 2.183861,1.927144 2.698371,1.853218 0.477118,-0.06855 0.624193,-0.545988 0.547214,-1.776374 l -0.06912,-1.104854 0.408998,-0.0014 c 0.224948,-7.64e-4 0.607871,-0.03385 0.850939,-0.07351 l 0.441942,-0.07212 0.60549,1.263302 c 0.787755,1.643582 1.004452,1.91418 1.532886,1.91418 0.601479,0 1.558267,-0.841228 2.782855,-2.446744 l 0.357893,-0.469224 0.422463,0.409467 c 0.232354,0.225207 0.422463,0.455235 0.422463,0.511173 0,0.05594 -0.472407,0.627208 -1.049794,1.269488 -1.506597,1.675926 -2.047139,2.397518 -2.512427,3.353946 -0.357823,0.735526 -0.411028,0.974429 -0.412996,1.854446 -0.0028,1.244267 0.161582,1.608258 1.596511,3.535534 0.568772,0.763928 1.206863,1.758297 1.417977,2.209709 0.347036,0.742043 0.382803,0.935781 0.372975,2.020305 -0.0085,0.933345 -0.08014,1.395713 -0.323014,2.08344 l -0.312145,0.883883 -5.682476,0.03284 -5.682477,0.03284 z"
       id="path827"
       inkscape:connector-curvature="0"
       transform="matrix(0.26458333,0,0,0.26458333,28.805015,155.51659)" />
    <path
       style="opacity:0.98999999;fill:#ffffff;fill-opacity:1;stroke:none;stroke-width:0.01262691;stroke-miterlimit:4;stroke-dasharray:none;stroke-opacity:1"
       d="m 29.38865,13.914269 c -0.615816,-0.339041 -0.630385,-0.360473 -0.59233,-0.871349 0.125025,-1.678395 -1.245865,-3.0803948 -2.846222,-2.910812 -0.602777,0.06387 -1.056561,0.219592 -1.43563,0.492643 -0.164473,0.118475 -0.690649,-0.09291 -2.818518,-1.132285 L 19.079658,8.2145124 19.493586,7.6994336 c 0.531967,-0.661962 1.25619,-1.2514559 2.129517,-1.7333577 1.191185,-0.6572964 1.943977,-0.8437333 3.409265,-0.8443407 2.209136,-9.157e-4 3.612276,0.5818619 5.087414,2.112998 1.44252,1.4972798 1.976978,2.8411618 1.98099,4.9811528 l 0.0027,1.420527 h -0.36 c -0.198001,0 -0.627166,0.142052 -0.9537,0.315672 -0.326534,0.17362 -0.633308,0.314346 -0.681719,0.312724 -0.04841,-0.0016 -0.372126,-0.159366 -0.719366,-0.35054 z"
       id="path829"
       inkscape:connector-curvature="0"
       transform="matrix(0.26458333,0,0,0.26458333,28.805015,155.51659)" />
    <path
       style="opacity:0.98999999;fill:#ffffff;fill-opacity:1;stroke:none;stroke-width:0.01262691;stroke-miterlimit:4;stroke-dasharray:none;stroke-opacity:1"
       d="m 33.587097,16.089572 c -0.296312,-0.160753 -0.34724,-0.268541 -0.34724,-0.734939 0,-0.370194 -0.09876,-0.69209 -0.306064,-0.997567 C 32.649116,13.93757 32.632348,13.823849 32.693805,12.729515 32.941656,8.3161996 29.733341,4.7540787 25.34804,4.5736747 23.038383,4.4786593 21.292474,5.1468874 19.65028,6.7544321 19.153488,7.240742 18.72425,7.7163843 18.696418,7.8114149 c -0.04019,0.1372109 -0.192555,0.1131421 -0.7401,-0.116908 -0.379224,-0.15933 -0.712144,-0.3070794 -0.739823,-0.3283321 -0.117527,-0.090241 0.721163,-1.1187484 1.569018,-1.9241284 3.14953,-2.9917451 7.787125,-3.6098356 11.720641,-1.5621065 0.932357,0.485371 1.386857,0.8330187 2.354896,1.8012651 1.374369,1.3746629 2.138004,2.5962454 2.635093,4.2153398 0.273671,0.8913952 0.315698,1.2720962 0.322243,2.9191192 0.0092,2.318383 -0.137821,2.967323 -0.672332,2.967323 -0.1963,0 -0.501384,0.113642 -0.677961,0.252538 -0.378373,0.297628 -0.426556,0.300584 -0.880996,0.05405 z"
       id="path831"
       inkscape:connector-curvature="0"
       transform="matrix(0.26458333,0,0,0.26458333,28.805015,155.51659)" />
    <path
       style="opacity:0.98999999;fill:#ffffff;fill-opacity:1;stroke:none;stroke-width:0.01262691;stroke-miterlimit:4;stroke-dasharray:none;stroke-opacity:1"
       d="m 24.224655,25.688555 c -0.617863,-0.0978 -1.137084,-0.19316 -1.153825,-0.211903 -0.01674,-0.01875 0.03473,-0.460239 0.11438,-0.981099 0.144581,-0.945455 0.145443,-0.94697 0.52248,-0.917671 4.429946,0.344247 7.035134,-0.485417 9.595302,-3.055782 0.555583,-0.557796 1.168832,-1.227255 1.362775,-1.487685 0.281903,-0.378545 0.435337,-0.473509 0.765048,-0.473509 1.007126,0 1.556733,-1.274292 0.966871,-2.241739 -0.236699,-0.388214 -0.240252,-0.454272 -0.06453,-1.199556 0.299332,-1.269541 0.248428,-3.492135 -0.112574,-4.915244 C 35.869369,8.8198392 35.016954,7.0631474 34.196384,6.0328147 32.410522,3.7904273 29.365436,2.2362296 26.40881,2.0580715 22.964765,1.8505431 19.765302,3.1842709 17.545029,5.7530259 17.150308,6.2096992 16.775136,6.6766527 16.711312,6.7907001 16.60616,6.9785967 16.534157,6.9694362 15.944172,6.6931023 15.58607,6.5253759 15.266033,6.3443885 15.232981,6.290908 c -0.135458,-0.2191757 0.572498,-1.1154484 2.0291,-2.5688409 1.72603,-1.7222264 3.920674,-2.88554994 6.407571,-3.3964866 1.400131,-0.28765911 3.900229,-0.26159303 5.335225,0.0556252 1.23738,0.27353356 3.866869,1.4626744 4.782771,2.1629259 1.973768,1.509041 3.532921,3.5663993 4.372262,5.7693566 0.725969,1.9053958 0.819133,2.4420978 0.814386,4.6915788 -0.0052,2.457172 -0.192958,3.307537 -1.195084,5.412124 -1.093978,2.297493 -2.442873,3.871832 -4.456308,5.201109 -2.672714,1.764532 -6.101203,2.544666 -9.098249,2.070255 z"
       id="path833"
       inkscape:connector-curvature="0"
       transform="matrix(0.26458333,0,0,0.26458333,28.805015,155.51659)" />
    <path
       style="opacity:0.98999999;fill:#ffffff;fill-opacity:1;stroke:none;stroke-width:0.01262691;stroke-miterlimit:4;stroke-dasharray:none;stroke-opacity:1"
       d="m 23.304388,19.180268 c -0.49241,-0.117316 -0.543102,-0.170681 -0.743781,-0.783003 -0.348063,-1.062025 -1.145877,-2.554664 -1.72505,-3.227412 -0.296054,-0.343887 -0.708743,-0.862824 -0.917087,-1.153194 -0.208344,-0.29037 -0.763823,-0.83928 -1.234399,-1.2198 l -0.855592,-0.691854 0.07738,-0.654823 c 0.123853,-1.048144 0.288499,-1.4739242 0.536485,-1.387369 0.117392,0.04097 1.299616,0.598248 2.627166,1.238389 l 2.413725,1.163891 0.08909,0.617227 c 0.214696,1.487529 1.401829,2.331226 3.120428,2.217692 0.184003,-0.01216 0.633429,-0.223231 0.998724,-0.469056 l 0.664172,-0.446955 0.786956,0.342835 c 0.746794,0.325338 0.790394,0.36847 0.854329,0.845145 0.03706,0.27627 0.18256,0.658108 0.323344,0.848527 l 0.255969,0.346216 -0.459468,0.473099 c -0.596527,0.614224 -1.768285,1.367386 -2.666877,1.71417 -0.81627,0.315013 -3.221906,0.446321 -4.145505,0.226275 z"
       id="path835"
       inkscape:connector-curvature="0"
       transform="matrix(0.26458333,0,0,0.26458333,28.805015,155.51659)" />
    <path
       style="opacity:0.98999999;fill:#ffffff;fill-opacity:1;stroke:none;stroke-width:0.01262691;stroke-miterlimit:4;stroke-dasharray:none;stroke-opacity:1"
       d="m 16.487319,11.285822 -0.779501,-0.439484 0.227471,-0.82033 c 0.125109,-0.4511806 0.264393,-0.8572513 0.30952,-0.9023788 0.04513,-0.045127 0.391797,0.069864 0.770377,0.2555369 0.7664,0.3758781 0.737078,0.2433006 0.388123,1.7548969 l -0.136489,0.591243 z"
       id="path837"
       inkscape:connector-curvature="0"
       transform="matrix(0.26458333,0,0,0.26458333,28.805015,155.51659)" />
    <path
       style="opacity:0.98999999;fill:#ffffff;fill-opacity:1;stroke:none;stroke-width:0.01262691;stroke-miterlimit:4;stroke-dasharray:none;stroke-opacity:1"
       d="m 14.168774,10.375198 c -0.645985,-0.238224 -0.64371,-0.223318 -0.229756,-1.5054426 0.140139,-0.4340499 0.308877,-0.7891817 0.374971,-0.7891817 0.0661,0 0.407171,0.1454332 0.757947,0.3231848 0.481819,0.2441565 0.618228,0.374122 0.557839,0.5314921 -0.04396,0.114569 -0.176594,0.537268 -0.294732,0.9393309 -0.237877,0.8095715 -0.279747,0.8275435 -1.166269,0.5006165 z"
       id="path839"
       inkscape:connector-curvature="0"
       transform="matrix(0.26458333,0,0,0.26458333,28.805015,155.51659)" />
    <path
       style="opacity:0.98999999;fill:#ffffff;fill-opacity:1;stroke:none;stroke-width:0.01262691;stroke-miterlimit:4;stroke-dasharray:none;stroke-opacity:1"
       d="M 24.326883,22.957608 23.431995,22.834799 23.21826,21.311921 c -0.117554,-0.837582 -0.194504,-1.542107 -0.171,-1.565611 0.0235,-0.0235 0.408742,0.01773 0.856084,0.09164 2.218441,0.366507 4.46714,-0.326209 6.332993,-1.950889 0.744439,-0.648217 1.026224,-0.81525 1.476107,-0.874988 0.305814,-0.04061 0.706052,-0.184751 0.889416,-0.320318 0.328498,-0.242869 0.340255,-0.242963 0.801366,-0.0064 0.356245,0.182765 0.467976,0.31762 0.467976,0.564828 0,0.178607 0.09609,0.487413 0.21354,0.686234 0.187919,0.318122 0.192158,0.401443 0.03533,0.694473 -0.585032,1.093142 -2.71432,2.859593 -4.322572,3.585993 -1.470362,0.664119 -3.764927,0.974805 -5.47062,0.740725 z"
       id="path841"
       inkscape:connector-curvature="0"
       transform="matrix(0.26458333,0,0,0.26458333,28.805015,155.51659)" />
    <path
       style="opacity:0.98999999;fill:#ffffff;fill-opacity:1;stroke:none;stroke-width:0.01262691;stroke-miterlimit:4;stroke-dasharray:none;stroke-opacity:1"
       d="M 40.310925,27.637852 C 39.206052,27.483817 37.673463,26.713831 36.712256,25.82985 l -0.757614,-0.696746 0.441942,-0.378514 c 0.243068,-0.208182 0.512476,-0.380041 0.598685,-0.38191 0.08621,-0.0019 0.410977,0.190664 0.721706,0.427849 1.958252,1.494767 4.548487,1.379495 6.571787,-0.292463 0.344495,-0.284674 0.741038,-0.519603 0.881207,-0.522064 0.140169,-0.0025 0.395972,-0.08259 0.568451,-0.178063 0.383973,-0.212544 0.699874,-0.07297 0.807761,0.35688 0.04242,0.169 0.110746,0.394901 0.151845,0.502001 0.04767,0.124228 -0.146425,0.432873 -0.536105,0.852498 -1.533136,1.650951 -3.665866,2.423172 -5.850996,2.118534 z"
       id="path843"
       inkscape:connector-curvature="0"
       transform="matrix(0.26458333,0,0,0.26458333,28.805015,155.51659)" />
    <path
       style="opacity:0.98999999;fill:#ffffff;fill-opacity:1;stroke:none;stroke-width:0.01262691;stroke-miterlimit:4;stroke-dasharray:none;stroke-opacity:1"
       d="m 39.616445,29.30566 c -1.213008,-0.334323 -1.754322,-0.577216 -2.736649,-1.227955 -0.749063,-0.496216 -2.12602,-1.822357 -2.123912,-2.045532 4.4e-4,-0.04649 0.159131,-0.174565 0.352648,-0.284611 0.349616,-0.198814 0.356831,-0.195503 1.136173,0.521292 1.483616,1.364547 3.121905,2.014771 5.076372,2.014771 2.328868,0 3.921756,-0.76705 5.718765,-2.75385 0.263229,-0.29103 0.580045,-0.529146 0.704037,-0.529146 0.369992,0 0.774535,-0.535155 0.774535,-1.024604 0,-0.242065 -0.06271,-0.502822 -0.139344,-0.579461 -0.101612,-0.101613 -0.101612,-0.31528 0,-0.789084 0.466814,-2.176679 -0.224437,-4.712864 -1.726802,-6.335598 -1.152984,-1.24536 -2.784658,-2.127907 -4.307647,-2.329938 l -0.644736,-0.08553 v -0.551943 c 0,-0.650828 0.0168,-0.654793 1.488984,-0.351312 3.149825,0.649316 5.712634,3.088243 6.520298,6.205115 0.253848,0.979634 0.2577,3.02908 0.0076,4.01649 -0.692686,2.734192 -2.822978,5.028631 -5.494485,5.917852 -1.446584,0.481502 -3.317729,0.568052 -4.605788,0.213042 z"
       id="path845"
       inkscape:connector-curvature="0"
       transform="matrix(0.26458333,0,0,0.26458333,28.805015,155.51659)" />
    <path
       style="opacity:0.98999999;fill:#ffffff;fill-opacity:1;stroke:none;stroke-width:0.01262691;stroke-miterlimit:4;stroke-dasharray:none;stroke-opacity:1"
       d="m 43.688848,21.737656 c -0.293774,-0.177296 -0.347049,-0.294317 -0.34724,-0.762733 -5.44e-4,-1.334976 -1.40403,-2.201397 -2.575961,-1.590231 -0.201314,0.104986 -0.387411,0.169499 -0.413547,0.143362 -0.02614,-0.02614 0.07185,-0.325463 0.217753,-0.665171 0.145902,-0.339707 0.398099,-1.072218 0.560438,-1.627802 l 0.295163,-1.010152 0.449821,0.02744 c 0.998877,0.06092 2.482749,1.21046 3.041169,2.355951 0.389302,0.798579 0.605666,1.88122 0.501527,2.509539 -0.06323,0.381476 -0.132988,0.473509 -0.358921,0.473509 -0.154242,0 -0.390737,0.08343 -0.525545,0.185388 -0.303296,0.229401 -0.407777,0.224565 -0.844657,-0.0391 z"
       id="path847"
       inkscape:connector-curvature="0"
       transform="matrix(0.26458333,0,0,0.26458333,28.805015,155.51659)" />
    <path
       style="opacity:0.98999999;fill:#ffffff;fill-opacity:1;stroke:none;stroke-width:0.01262691;stroke-miterlimit:4;stroke-dasharray:none;stroke-opacity:1"
       d="m 39.164462,24.96483 c -0.650929,-0.274702 -1.631457,-0.917502 -1.631457,-1.069527 0,-0.03586 0.361476,-0.554711 0.80328,-1.153002 0.441804,-0.598291 0.902588,-1.243573 1.023965,-1.433958 0.266451,-0.417944 0.390497,-0.365957 0.498331,0.208846 0.09625,0.513033 0.757273,1.146571 1.326848,1.271671 0.507627,0.111494 1.053344,-0.01514 1.4668,-0.340362 0.317785,-0.249969 0.352539,-0.252442 0.767435,-0.05459 0.239017,0.113979 0.464141,0.306756 0.500275,0.428393 0.03613,0.121637 0.144021,0.375045 0.23975,0.563129 0.165622,0.325408 0.151828,0.361485 -0.284798,0.744847 -0.793368,0.696587 -1.720049,1.040724 -2.932621,1.089076 -0.905314,0.0361 -1.183546,-0.0037 -1.777808,-0.254523 z"
       id="path849"
       inkscape:connector-curvature="0"
       transform="matrix(0.26458333,0,0,0.26458333,28.805015,155.51659)" />
    <path
       style="opacity:0.98999999;fill:#ffffff;fill-opacity:1;stroke:none;stroke-width:0.01262691;stroke-miterlimit:4;stroke-dasharray:none;stroke-opacity:1"
       d="m 46.37184,22.910919 c 0,-0.177069 -0.09003,-0.496045 -0.20007,-0.708837 -0.13506,-0.261177 -0.208137,-0.782267 -0.224895,-1.60366 -0.02089,-1.023825 -0.07894,-1.333615 -0.36612,-1.95366 -0.67501,-1.457415 -1.689919,-2.363781 -3.215243,-2.871376 -0.70915,-0.235991 -0.791694,-0.298735 -0.789963,-0.600472 0.0037,-0.641145 0.150836,-0.725677 0.965727,-0.554752 2.555265,0.535972 4.704438,2.663089 5.225912,5.172279 0.145751,0.701313 0.10756,2.527256 -0.0616,2.945131 -0.08218,0.202998 -0.746013,0.49729 -1.121742,0.49729 -0.143061,0 -0.212006,-0.104696 -0.212006,-0.321943 z"
       id="path851"
       inkscape:connector-curvature="0"
       transform="matrix(0.26458333,0,0,0.26458333,28.805015,155.51659)" />
  </g>
</svg>
